<svg xmlns="http://www.w3.org/2000/svg" xmlns:xlink="http://www.w3.org/1999/xlink" width="2333" zoomAndPan="magnify" viewBox="0 0 1749.75 599.999999" height="800" preserveAspectRatio="xMidYMid meet" version="1.0"><defs><filter x="0%" y="0%" width="100%" height="100%" id="223ff0036e"><feColorMatrix values="0 0 0 0 1 0 0 0 0 1 0 0 0 0 1 0 0 0 1 0" color-interpolation-filters="sRGB"/></filter><g/><clipPath id="f95a2b9059"><path d="M 0 0.0429688 L 1749.5 0.0429688 L 1749.5 599.957031 L 0 599.957031 Z M 0 0.0429688 " clip-rule="nonzero"/></clipPath><mask id="332568e5d2"><g filter="url(#223ff0036e)"><rect x="-174.975" width="2099.7" fill="#000000" y="-60" height="719.999999" fill-opacity="0.4"/></g></mask><clipPath id="028de0bd20"><path d="M 1.058594 0.359375 L 226.777344 0.359375 L 226.777344 163.828125 L 1.058594 163.828125 Z M 1.058594 0.359375 " clip-rule="nonzero"/></clipPath><clipPath id="efe8dce614"><rect x="0" width="228" y="0" height="164"/></clipPath></defs><g clip-path="url(#f95a2b9059)"><path fill="#ffffff" d="M 0 0.0429688 L 1749.5 0.0429688 L 1749.5 599.957031 L 0 599.957031 Z M 0 0.0429688 " fill-opacity="1" fill-rule="nonzero"/><path fill="#000000" d="M 0 0.0429688 L 1749.5 0.0429688 L 1749.5 599.957031 L 0 599.957031 Z M 0 0.0429688 " fill-opacity="1" fill-rule="nonzero"/></g><g mask="url(#332568e5d2)"><g transform="matrix(1, 0, 0, 1, 954, 218)"><g clip-path="url(#efe8dce614)"><g clip-path="url(#028de0bd20)"><path fill="#ff3131" d="M 118.324219 163.597656 C 116.757812 163.597656 115.429688 162.441406 115.222656 160.886719 L 96.871094 25.5625 L 86.652344 92.941406 C 86.417969 94.472656 85.105469 95.601562 83.554688 95.601562 L 4.1875 95.601562 C 2.457031 95.601562 1.054688 94.199219 1.054688 92.46875 C 1.054688 90.738281 2.457031 89.339844 4.1875 89.339844 L 80.859375 89.339844 L 93.949219 3.058594 C 94.179688 1.527344 95.5 0.398438 97.046875 0.398438 L 97.070312 0.398438 C 98.628906 0.410156 99.941406 1.566406 100.148438 3.109375 L 118.066406 135.226562 L 125.550781 69.894531 C 125.726562 68.347656 127.015625 67.164062 128.574219 67.121094 C 130.132812 67.078125 131.484375 68.183594 131.75 69.714844 L 137.242188 101.378906 L 139.722656 91.691406 C 140.078125 90.308594 141.328125 89.339844 142.757812 89.339844 L 223.917969 89.339844 C 225.648438 89.339844 227.050781 90.738281 227.050781 92.46875 C 227.050781 94.199219 225.648438 95.601562 223.917969 95.601562 L 145.1875 95.601562 L 139.683594 117.078125 C 139.316406 118.507812 138 119.476562 136.527344 119.429688 C 135.050781 119.371094 133.816406 118.289062 133.5625 116.832031 L 129.296875 92.234375 L 121.4375 160.824219 C 121.257812 162.394531 119.9375 163.582031 118.355469 163.597656 L 118.324219 163.597656 " fill-opacity="1" fill-rule="nonzero"/></g></g></g></g><g fill="#ffffff" fill-opacity="0.4"><g transform="translate(427.380527, 358.117858)"><g><path d="M 83.71875 -27.25 L 123.28125 -117.203125 L 157.375 -117.203125 L 157.375 -111.40625 C 154.125 -111.3125 151.507812 -110.90625 149.53125 -110.1875 C 147.5625 -109.476562 146.039062 -108.285156 144.96875 -106.609375 C 143.90625 -104.941406 143.195312 -102.632812 142.84375 -99.6875 C 142.488281 -96.75 142.3125 -93 142.3125 -88.4375 L 142.3125 -28.765625 C 142.3125 -23.691406 142.515625 -19.679688 142.921875 -16.734375 C 143.328125 -13.796875 144.113281 -11.515625 145.28125 -9.890625 C 146.445312 -8.265625 148.117188 -7.195312 150.296875 -6.6875 C 152.484375 -6.1875 155.351562 -5.882812 158.90625 -5.78125 L 158.90625 0 L 109.59375 0 L 109.59375 -5.78125 C 113.132812 -5.882812 115.992188 -6.210938 118.171875 -6.765625 C 120.359375 -7.328125 122.0625 -8.367188 123.28125 -9.890625 C 124.5 -11.410156 125.3125 -13.566406 125.71875 -16.359375 C 126.125 -19.148438 126.328125 -22.929688 126.328125 -27.703125 L 126.328125 -98.328125 L 124.8125 -98.328125 L 80.359375 1.515625 L 77.015625 1.515625 L 33.328125 -98.328125 L 32.71875 -98.328125 L 32.71875 -28.765625 C 32.71875 -23.691406 32.921875 -19.679688 33.328125 -16.734375 C 33.734375 -13.796875 34.519531 -11.515625 35.6875 -9.890625 C 36.851562 -8.265625 38.523438 -7.195312 40.703125 -6.6875 C 42.890625 -6.1875 45.757812 -5.882812 49.3125 -5.78125 L 49.3125 0 L 6.84375 0 L 6.84375 -5.78125 C 10.394531 -5.882812 13.257812 -6.210938 15.4375 -6.765625 C 17.625 -7.328125 19.328125 -8.367188 20.546875 -9.890625 C 21.765625 -11.410156 22.578125 -13.566406 22.984375 -16.359375 C 23.390625 -19.148438 23.59375 -22.929688 23.59375 -27.703125 L 23.59375 -89.5 C 23.59375 -93.757812 23.414062 -97.285156 23.0625 -100.078125 C 22.707031 -102.867188 21.992188 -105.070312 20.921875 -106.6875 C 19.859375 -108.3125 18.3125 -109.453125 16.28125 -110.109375 C 14.25 -110.773438 11.613281 -111.207031 8.375 -111.40625 L 8.375 -117.203125 L 44.75 -117.203125 L 83.109375 -27.25 Z M 83.71875 -27.25 "/></g></g></g><g fill="#ffffff" fill-opacity="0.4"><g transform="translate(593.283846, 358.117858)"><g><path d="M 79.453125 -14.15625 C 70.828125 -3.707031 60.117188 1.515625 47.328125 1.515625 C 41.347656 1.515625 35.921875 0.53125 31.046875 -1.4375 C 26.179688 -3.414062 21.992188 -6.207031 18.484375 -9.8125 C 14.984375 -13.414062 12.269531 -17.726562 10.34375 -22.75 C 8.414062 -27.769531 7.453125 -33.328125 7.453125 -39.421875 C 7.453125 -45.609375 8.46875 -51.335938 10.5 -56.609375 C 12.53125 -61.890625 15.394531 -66.40625 19.09375 -70.15625 C 22.800781 -73.914062 27.21875 -76.859375 32.34375 -78.984375 C 37.46875 -81.117188 43.070312 -82.1875 49.15625 -82.1875 C 59 -82.1875 66.609375 -79.519531 71.984375 -74.1875 C 77.367188 -68.863281 80.0625 -61.234375 80.0625 -51.296875 C 80.0625 -49.867188 79.78125 -49.003906 79.21875 -48.703125 C 78.664062 -48.398438 77.375 -48.25 75.34375 -48.25 L 25.265625 -48.25 C 25.066406 -47.4375 24.914062 -46.445312 24.8125 -45.28125 C 24.707031 -44.113281 24.65625 -42.820312 24.65625 -41.40625 C 24.65625 -36.125 25.289062 -31.328125 26.5625 -27.015625 C 27.832031 -22.703125 29.65625 -19.023438 32.03125 -15.984375 C 34.414062 -12.941406 37.257812 -10.582031 40.5625 -8.90625 C 43.863281 -7.226562 47.539062 -6.390625 51.59375 -6.390625 C 55.851562 -6.390625 59.8125 -7.328125 63.46875 -9.203125 C 67.125 -11.085938 70.878906 -14.160156 74.734375 -18.421875 Z M 54.34375 -55.25 C 56.363281 -55.25 57.984375 -55.296875 59.203125 -55.390625 C 60.421875 -55.492188 61.332031 -55.695312 61.9375 -56 C 62.550781 -56.3125 62.957031 -56.742188 63.15625 -57.296875 C 63.363281 -57.859375 63.46875 -58.597656 63.46875 -59.515625 C 63.46875 -64.179688 61.96875 -67.910156 58.96875 -70.703125 C 55.976562 -73.492188 51.894531 -74.890625 46.71875 -74.890625 C 35.757812 -74.890625 28.960938 -68.34375 26.328125 -55.25 Z M 54.34375 -55.25 "/></g></g></g><g fill="#ffffff" fill-opacity="0.4"><g transform="translate(680.497231, 358.117858)"><g><path d="M 73.671875 -12.78125 L 73.0625 -12.78125 C 69.40625 -7.601562 65.519531 -3.925781 61.40625 -1.75 C 57.300781 0.425781 52.457031 1.515625 46.875 1.515625 C 41.09375 1.515625 35.789062 0.476562 30.96875 -1.59375 C 26.15625 -3.675781 21.992188 -6.566406 18.484375 -10.265625 C 14.984375 -13.972656 12.242188 -18.414062 10.265625 -23.59375 C 8.296875 -28.769531 7.3125 -34.398438 7.3125 -40.484375 C 7.3125 -46.472656 8.296875 -52.03125 10.265625 -57.15625 C 12.242188 -62.28125 14.984375 -66.691406 18.484375 -70.390625 C 21.992188 -74.097656 26.179688 -76.988281 31.046875 -79.0625 C 35.921875 -81.144531 41.195312 -82.1875 46.875 -82.1875 C 51.75 -82.1875 56.085938 -81.375 59.890625 -79.75 C 63.691406 -78.125 67.367188 -75.535156 70.921875 -71.984375 L 70.921875 -87.515625 C 70.921875 -93.296875 70.84375 -98.113281 70.6875 -101.96875 C 70.539062 -105.832031 70.316406 -108.472656 70.015625 -109.890625 C 69.503906 -112.117188 68.082031 -113.691406 65.75 -114.609375 C 63.414062 -115.523438 59.613281 -115.984375 54.34375 -115.984375 L 54.34375 -120.546875 L 85.53125 -126.328125 L 85.53125 -38.5 C 85.53125 -31.5 85.582031 -25.738281 85.6875 -21.21875 C 85.789062 -16.707031 86.097656 -13.488281 86.609375 -11.5625 C 86.910156 -10.34375 87.289062 -9.328125 87.75 -8.515625 C 88.207031 -7.710938 88.863281 -7.082031 89.71875 -6.625 C 90.582031 -6.164062 91.75 -5.832031 93.21875 -5.625 C 94.695312 -5.425781 96.601562 -5.328125 98.9375 -5.328125 L 98.9375 -0.15625 L 73.671875 1.515625 Z M 70.625 -46.421875 C 70.625 -51.703125 70.34375 -55.710938 69.78125 -58.453125 C 69.226562 -61.191406 68.140625 -63.570312 66.515625 -65.59375 C 64.179688 -68.644531 61.210938 -70.957031 57.609375 -72.53125 C 54.003906 -74.101562 50.425781 -74.890625 46.875 -74.890625 C 39.570312 -74.890625 34.015625 -71.867188 30.203125 -65.828125 C 26.398438 -59.785156 24.5 -51.59375 24.5 -41.25 C 24.5 -35.875 24.976562 -31.003906 25.9375 -26.640625 C 26.90625 -22.273438 28.328125 -18.546875 30.203125 -15.453125 C 32.085938 -12.359375 34.425781 -9.972656 37.21875 -8.296875 C 40.007812 -6.617188 43.226562 -5.78125 46.875 -5.78125 C 48.707031 -5.78125 50.5625 -5.984375 52.4375 -6.390625 C 54.3125 -6.796875 56.132812 -7.429688 57.90625 -8.296875 C 59.6875 -9.160156 61.335938 -10.175781 62.859375 -11.34375 C 64.378906 -12.507812 65.648438 -13.851562 66.671875 -15.375 C 68.085938 -17.601562 69.097656 -20.289062 69.703125 -23.4375 C 70.316406 -26.582031 70.625 -30.894531 70.625 -36.375 Z M 70.625 -46.421875 "/></g></g></g><g fill="#ffffff" fill-opacity="0.4"><g transform="translate(783.235523, 358.117858)"><g><path d="M 34.703125 -24.203125 C 34.703125 -20.242188 34.878906 -17.070312 35.234375 -14.6875 C 35.585938 -12.300781 36.269531 -10.421875 37.28125 -9.046875 C 38.300781 -7.679688 39.722656 -6.742188 41.546875 -6.234375 C 43.378906 -5.734375 45.816406 -5.429688 48.859375 -5.328125 L 48.859375 0 L 5.171875 0 L 5.171875 -5.328125 C 8.210938 -5.429688 10.695312 -5.757812 12.625 -6.3125 C 14.5625 -6.875 16.0625 -7.785156 17.125 -9.046875 C 18.1875 -10.316406 18.894531 -12.09375 19.25 -14.375 C 19.601562 -16.664062 19.78125 -19.585938 19.78125 -23.140625 L 19.78125 -42.609375 C 19.78125 -48.492188 19.703125 -53.335938 19.546875 -57.140625 C 19.398438 -60.953125 19.125 -63.566406 18.71875 -64.984375 C 18.207031 -67.316406 17.039062 -68.914062 15.21875 -69.78125 C 13.394531 -70.644531 9.945312 -71.078125 4.875 -71.078125 L 4.875 -76.40625 L 34.703125 -82.1875 Z M 17.203125 -113.09375 C 17.203125 -115.726562 18.113281 -117.957031 19.9375 -119.78125 C 21.757812 -121.613281 23.992188 -122.53125 26.640625 -122.53125 C 29.273438 -122.53125 31.503906 -121.613281 33.328125 -119.78125 C 35.160156 -117.957031 36.078125 -115.726562 36.078125 -113.09375 C 36.078125 -110.445312 35.160156 -108.210938 33.328125 -106.390625 C 31.503906 -104.566406 29.273438 -103.65625 26.640625 -103.65625 C 23.992188 -103.65625 21.757812 -104.566406 19.9375 -106.390625 C 18.113281 -108.210938 17.203125 -110.445312 17.203125 -113.09375 Z M 17.203125 -113.09375 "/></g></g></g><g fill="#ffffff" fill-opacity="0.4"><g transform="translate(835.137407, 358.117858)"><g><path d="M 53.125 -45.046875 C 47.332031 -42.816406 42.429688 -40.632812 38.421875 -38.5 C 34.421875 -36.375 31.203125 -34.242188 28.765625 -32.109375 C 26.328125 -29.984375 24.578125 -27.851562 23.515625 -25.71875 C 22.453125 -23.59375 21.921875 -21.410156 21.921875 -19.171875 C 21.921875 -15.828125 23.035156 -13.085938 25.265625 -10.953125 C 27.492188 -8.828125 30.4375 -7.765625 34.09375 -7.765625 C 36.726562 -7.765625 39.1875 -8.421875 41.46875 -9.734375 C 43.757812 -11.054688 45.765625 -12.859375 47.484375 -15.140625 C 49.210938 -17.421875 50.582031 -20.109375 51.59375 -23.203125 C 52.613281 -26.304688 53.125 -29.582031 53.125 -33.03125 Z M 53.125 -51.59375 L 53.125 -57.84375 C 53.125 -70.21875 47.847656 -76.40625 37.296875 -76.40625 C 35.566406 -76.40625 34.09375 -76.253906 32.875 -75.953125 C 31.65625 -75.648438 30.640625 -75.140625 29.828125 -74.421875 C 29.015625 -73.710938 28.28125 -72.695312 27.625 -71.375 C 26.96875 -70.0625 26.332031 -68.441406 25.71875 -66.515625 C 24.601562 -63.566406 23.515625 -61.609375 22.453125 -60.640625 C 21.390625 -59.679688 19.84375 -59.203125 17.8125 -59.203125 C 12.738281 -59.203125 10.203125 -61.738281 10.203125 -66.8125 C 10.203125 -71.6875 12.785156 -75.46875 17.953125 -78.15625 C 23.128906 -80.84375 30.488281 -82.1875 40.03125 -82.1875 C 50.175781 -82.1875 57.378906 -80.382812 61.640625 -76.78125 C 65.898438 -73.1875 68.03125 -67.078125 68.03125 -58.453125 L 68.03125 -24.359375 C 68.03125 -12.785156 70.316406 -7 74.890625 -7 C 76.304688 -7 77.671875 -7.175781 78.984375 -7.53125 C 80.304688 -7.882812 81.425781 -8.820312 82.34375 -10.34375 L 84.46875 -6.703125 C 83.25 -4.367188 81.015625 -2.414062 77.765625 -0.84375 C 74.523438 0.726562 71.128906 1.515625 67.578125 1.515625 C 63.109375 1.515625 59.785156 0.0976562 57.609375 -2.734375 C 55.429688 -5.578125 54.34375 -9.585938 54.34375 -14.765625 L 53.578125 -14.765625 C 50.941406 -9.796875 47.285156 -5.863281 42.609375 -2.96875 C 37.941406 -0.0703125 32.769531 1.375 27.09375 1.375 C 20.695312 1.375 15.671875 -0.25 12.015625 -3.5 C 8.367188 -6.75 6.546875 -11.113281 6.546875 -16.59375 C 6.546875 -19.03125 6.972656 -21.363281 7.828125 -23.59375 C 8.691406 -25.820312 10.085938 -27.953125 12.015625 -29.984375 C 13.953125 -32.015625 16.492188 -34.019531 19.640625 -36 C 22.785156 -37.976562 26.640625 -39.984375 31.203125 -42.015625 Z M 53.125 -51.59375 "/></g></g></g><g fill="#ffffff" fill-opacity="0.4"><g transform="translate(919.458882, 358.117858)"><g><path d="M 100.15625 -87.828125 C 100.15625 -82.441406 99.289062 -77.617188 97.5625 -73.359375 C 95.832031 -69.097656 93.113281 -65.492188 89.40625 -62.546875 C 85.707031 -59.609375 80.890625 -57.328125 74.953125 -55.703125 C 69.023438 -54.078125 61.796875 -53.265625 53.265625 -53.265625 L 39.578125 -53.265625 L 39.578125 -23.890625 C 39.578125 -20.140625 39.800781 -17.070312 40.25 -14.6875 C 40.707031 -12.300781 41.671875 -10.445312 43.140625 -9.125 C 44.617188 -7.8125 46.753906 -6.925781 49.546875 -6.46875 C 52.335938 -6.007812 56.015625 -5.78125 60.578125 -5.78125 L 60.578125 0 L 6.84375 0 L 6.84375 -5.78125 C 10.394531 -5.882812 13.257812 -6.1875 15.4375 -6.6875 C 17.625 -7.195312 19.328125 -8.0625 20.546875 -9.28125 C 21.765625 -10.5 22.578125 -12.222656 22.984375 -14.453125 C 23.390625 -16.691406 23.59375 -19.585938 23.59375 -23.140625 L 23.59375 -94.0625 C 23.59375 -97.613281 23.414062 -100.476562 23.0625 -102.65625 C 22.707031 -104.84375 21.992188 -106.566406 20.921875 -107.828125 C 19.859375 -109.097656 18.3125 -109.960938 16.28125 -110.421875 C 14.25 -110.878906 11.613281 -111.207031 8.375 -111.40625 L 8.375 -117.203125 L 56.15625 -117.203125 C 70.164062 -117.203125 81 -114.613281 88.65625 -109.4375 C 96.320312 -104.257812 100.15625 -97.054688 100.15625 -87.828125 Z M 39.578125 -60.875 L 50.375 -60.875 C 60.519531 -60.875 68.050781 -62.828125 72.96875 -66.734375 C 77.894531 -70.640625 80.359375 -77.0625 80.359375 -86 C 80.359375 -94.625 78.40625 -100.785156 74.5 -104.484375 C 70.59375 -108.191406 64.476562 -110.046875 56.15625 -110.046875 L 42.15625 -110.046875 C 40.4375 -110.046875 39.578125 -109.179688 39.578125 -107.453125 Z M 39.578125 -60.875 "/></g></g></g><g fill="#ffffff" fill-opacity="0.4"><g transform="translate(1024.023619, 358.117858)"><g><path d="M 70.46875 -56.3125 C 70.46875 -60.476562 70.363281 -63.75 70.15625 -66.125 C 69.957031 -68.507812 69.425781 -70.335938 68.5625 -71.609375 C 67.707031 -72.878906 66.441406 -73.742188 64.765625 -74.203125 C 63.085938 -74.660156 60.78125 -75.039062 57.84375 -75.34375 L 57.84375 -80.671875 L 85.390625 -80.671875 L 85.390625 -33.9375 C 85.390625 -28.15625 85.460938 -23.4375 85.609375 -19.78125 C 85.765625 -16.132812 85.992188 -13.394531 86.296875 -11.5625 C 86.503906 -10.25 86.832031 -9.210938 87.28125 -8.453125 C 87.738281 -7.691406 88.425781 -7.082031 89.34375 -6.625 C 90.257812 -6.164062 91.453125 -5.859375 92.921875 -5.703125 C 94.390625 -5.554688 96.289062 -5.484375 98.625 -5.484375 L 98.625 -0.15625 L 73.515625 1.671875 L 71.84375 -16.59375 L 71.234375 -16.59375 C 67.378906 -10.300781 62.9375 -5.707031 57.90625 -2.8125 C 52.882812 0.0703125 47.632812 1.515625 42.15625 1.515625 C 37.894531 1.515625 33.757812 0.707031 29.75 -0.90625 C 25.75 -2.53125 22.734375 -4.710938 20.703125 -7.453125 C 18.972656 -9.691406 17.726562 -12.785156 16.96875 -16.734375 C 16.207031 -20.691406 15.828125 -25.816406 15.828125 -32.109375 L 15.828125 -56.3125 C 15.828125 -60.476562 15.722656 -63.75 15.515625 -66.125 C 15.316406 -68.507812 14.785156 -70.335938 13.921875 -71.609375 C 13.066406 -72.878906 11.800781 -73.742188 10.125 -74.203125 C 8.445312 -74.660156 6.140625 -75.039062 3.203125 -75.34375 L 3.203125 -80.671875 L 30.75 -80.671875 L 30.75 -39.109375 C 30.75 -28.054688 32.039062 -20.039062 34.625 -15.0625 C 37.207031 -10.09375 41.34375 -7.609375 47.03125 -7.609375 C 55.957031 -7.609375 62.90625 -13.441406 67.875 -25.109375 C 68.382812 -26.328125 68.789062 -27.441406 69.09375 -28.453125 C 69.40625 -29.472656 69.660156 -30.59375 69.859375 -31.8125 C 70.066406 -33.03125 70.21875 -34.398438 70.3125 -35.921875 C 70.414062 -37.441406 70.46875 -39.269531 70.46875 -41.40625 Z M 70.46875 -56.3125 "/></g></g></g><g fill="#ffffff" fill-opacity="0.4"><g transform="translate(1126.000896, 358.117858)"><g><path d="M 31.8125 -23.75 C 31.8125 -19.882812 31.960938 -16.785156 32.265625 -14.453125 C 32.566406 -12.117188 33.195312 -10.289062 34.15625 -8.96875 C 35.125 -7.65625 36.492188 -6.742188 38.265625 -6.234375 C 40.046875 -5.734375 42.410156 -5.429688 45.359375 -5.328125 L 45.359375 0 L 3.34375 0 L 3.34375 -5.328125 C 6.394531 -5.429688 8.832031 -5.757812 10.65625 -6.3125 C 12.476562 -6.875 13.921875 -7.765625 14.984375 -8.984375 C 16.054688 -10.203125 16.769531 -11.898438 17.125 -14.078125 C 17.476562 -16.253906 17.65625 -19.117188 17.65625 -22.671875 L 17.65625 -88.28125 C 17.65625 -93.757812 17.578125 -98.347656 17.421875 -102.046875 C 17.273438 -105.753906 17.050781 -108.269531 16.75 -109.59375 C 16.238281 -111.925781 15.039062 -113.492188 13.15625 -114.296875 C 11.28125 -115.109375 7.910156 -115.515625 3.046875 -115.515625 L 3.046875 -120.703125 L 31.8125 -126.328125 Z M 31.8125 -23.75 "/></g></g></g><g fill="#ffffff" fill-opacity="0.4"><g transform="translate(1175.46746, 358.117858)"><g><path d="M 13.09375 0 L 9.734375 0 L 9.734375 -26.171875 L 13.546875 -26.171875 C 17.503906 -11.867188 24.707031 -4.71875 35.15625 -4.71875 C 39.21875 -4.71875 42.441406 -5.707031 44.828125 -7.6875 C 47.210938 -9.664062 48.40625 -12.6875 48.40625 -16.75 C 48.40625 -18.269531 48.175781 -19.5625 47.71875 -20.625 C 47.257812 -21.6875 46.394531 -22.800781 45.125 -23.96875 C 43.851562 -25.132812 42.078125 -26.476562 39.796875 -28 C 37.515625 -29.519531 34.5 -31.453125 30.75 -33.796875 C 27.289062 -35.921875 24.289062 -37.894531 21.75 -39.71875 C 19.21875 -41.550781 17.085938 -43.40625 15.359375 -45.28125 C 13.640625 -47.15625 12.347656 -49.15625 11.484375 -51.28125 C 10.628906 -53.414062 10.203125 -55.90625 10.203125 -58.75 C 10.203125 -62.195312 10.785156 -65.363281 11.953125 -68.25 C 13.117188 -71.144531 14.710938 -73.609375 16.734375 -75.640625 C 18.765625 -77.671875 21.148438 -79.269531 23.890625 -80.4375 C 26.628906 -81.601562 29.625 -82.1875 32.875 -82.1875 C 35.613281 -82.1875 38.453125 -81.753906 41.390625 -80.890625 C 44.335938 -80.035156 46.925781 -78.894531 49.15625 -77.46875 L 52.203125 -80.671875 L 55.09375 -80.671875 L 55.09375 -58.75 L 51.140625 -58.75 C 48.910156 -64.9375 46.472656 -69.347656 43.828125 -71.984375 C 41.191406 -74.628906 37.945312 -75.953125 34.09375 -75.953125 C 30.644531 -75.953125 27.878906 -75.035156 25.796875 -73.203125 C 23.710938 -71.378906 22.671875 -68.84375 22.671875 -65.59375 C 22.671875 -63.875 22.953125 -62.378906 23.515625 -61.109375 C 24.078125 -59.835938 24.960938 -58.59375 26.171875 -57.375 C 27.390625 -56.15625 28.9375 -54.910156 30.8125 -53.640625 C 32.695312 -52.378906 34.957031 -50.9375 37.59375 -49.3125 C 41.957031 -46.570312 45.6875 -44.132812 48.78125 -42 C 51.875 -39.875 54.382812 -37.769531 56.3125 -35.6875 C 58.238281 -33.613281 59.660156 -31.457031 60.578125 -29.21875 C 61.492188 -26.988281 61.953125 -24.453125 61.953125 -21.609375 C 61.953125 -14.410156 59.613281 -8.753906 54.9375 -4.640625 C 50.269531 -0.535156 44.132812 1.515625 36.53125 1.515625 C 28.613281 1.515625 21.816406 -0.765625 16.140625 -5.328125 Z M 13.09375 0 "/></g></g></g><g fill="#ffffff" fill-opacity="0.4"><g transform="translate(1244.568454, 358.117858)"><g><path d="M 79.453125 -14.15625 C 70.828125 -3.707031 60.117188 1.515625 47.328125 1.515625 C 41.347656 1.515625 35.921875 0.53125 31.046875 -1.4375 C 26.179688 -3.414062 21.992188 -6.207031 18.484375 -9.8125 C 14.984375 -13.414062 12.269531 -17.726562 10.34375 -22.75 C 8.414062 -27.769531 7.453125 -33.328125 7.453125 -39.421875 C 7.453125 -45.609375 8.46875 -51.335938 10.5 -56.609375 C 12.53125 -61.890625 15.394531 -66.40625 19.09375 -70.15625 C 22.800781 -73.914062 27.21875 -76.859375 32.34375 -78.984375 C 37.46875 -81.117188 43.070312 -82.1875 49.15625 -82.1875 C 59 -82.1875 66.609375 -79.519531 71.984375 -74.1875 C 77.367188 -68.863281 80.0625 -61.234375 80.0625 -51.296875 C 80.0625 -49.867188 79.78125 -49.003906 79.21875 -48.703125 C 78.664062 -48.398438 77.375 -48.25 75.34375 -48.25 L 25.265625 -48.25 C 25.066406 -47.4375 24.914062 -46.445312 24.8125 -45.28125 C 24.707031 -44.113281 24.65625 -42.820312 24.65625 -41.40625 C 24.65625 -36.125 25.289062 -31.328125 26.5625 -27.015625 C 27.832031 -22.703125 29.65625 -19.023438 32.03125 -15.984375 C 34.414062 -12.941406 37.257812 -10.582031 40.5625 -8.90625 C 43.863281 -7.226562 47.539062 -6.390625 51.59375 -6.390625 C 55.851562 -6.390625 59.8125 -7.328125 63.46875 -9.203125 C 67.125 -11.085938 70.878906 -14.160156 74.734375 -18.421875 Z M 54.34375 -55.25 C 56.363281 -55.25 57.984375 -55.296875 59.203125 -55.390625 C 60.421875 -55.492188 61.332031 -55.695312 61.9375 -56 C 62.550781 -56.3125 62.957031 -56.742188 63.15625 -57.296875 C 63.363281 -57.859375 63.46875 -58.597656 63.46875 -59.515625 C 63.46875 -64.179688 61.96875 -67.910156 58.96875 -70.703125 C 55.976562 -73.492188 51.894531 -74.890625 46.71875 -74.890625 C 35.757812 -74.890625 28.960938 -68.34375 26.328125 -55.25 Z M 54.34375 -55.25 "/></g></g></g><g fill="#ffffff" fill-opacity="1"><g transform="translate(422.537251, 353.274575)"><g><path d="M 83.71875 -27.25 L 123.28125 -117.203125 L 157.375 -117.203125 L 157.375 -111.40625 C 154.125 -111.3125 151.507812 -110.90625 149.53125 -110.1875 C 147.5625 -109.476562 146.039062 -108.285156 144.96875 -106.609375 C 143.90625 -104.941406 143.195312 -102.632812 142.84375 -99.6875 C 142.488281 -96.75 142.3125 -93 142.3125 -88.4375 L 142.3125 -28.765625 C 142.3125 -23.691406 142.515625 -19.679688 142.921875 -16.734375 C 143.328125 -13.796875 144.113281 -11.515625 145.28125 -9.890625 C 146.445312 -8.265625 148.117188 -7.195312 150.296875 -6.6875 C 152.484375 -6.1875 155.351562 -5.882812 158.90625 -5.78125 L 158.90625 0 L 109.59375 0 L 109.59375 -5.78125 C 113.132812 -5.882812 115.992188 -6.210938 118.171875 -6.765625 C 120.359375 -7.328125 122.0625 -8.367188 123.28125 -9.890625 C 124.5 -11.410156 125.3125 -13.566406 125.71875 -16.359375 C 126.125 -19.148438 126.328125 -22.929688 126.328125 -27.703125 L 126.328125 -98.328125 L 124.8125 -98.328125 L 80.359375 1.515625 L 77.015625 1.515625 L 33.328125 -98.328125 L 32.71875 -98.328125 L 32.71875 -28.765625 C 32.71875 -23.691406 32.921875 -19.679688 33.328125 -16.734375 C 33.734375 -13.796875 34.519531 -11.515625 35.6875 -9.890625 C 36.851562 -8.265625 38.523438 -7.195312 40.703125 -6.6875 C 42.890625 -6.1875 45.757812 -5.882812 49.3125 -5.78125 L 49.3125 0 L 6.84375 0 L 6.84375 -5.78125 C 10.394531 -5.882812 13.257812 -6.210938 15.4375 -6.765625 C 17.625 -7.328125 19.328125 -8.367188 20.546875 -9.890625 C 21.765625 -11.410156 22.578125 -13.566406 22.984375 -16.359375 C 23.390625 -19.148438 23.59375 -22.929688 23.59375 -27.703125 L 23.59375 -89.5 C 23.59375 -93.757812 23.414062 -97.285156 23.0625 -100.078125 C 22.707031 -102.867188 21.992188 -105.070312 20.921875 -106.6875 C 19.859375 -108.3125 18.3125 -109.453125 16.28125 -110.109375 C 14.25 -110.773438 11.613281 -111.207031 8.375 -111.40625 L 8.375 -117.203125 L 44.75 -117.203125 L 83.109375 -27.25 Z M 83.71875 -27.25 "/></g></g></g><g fill="#ffffff" fill-opacity="1"><g transform="translate(588.440571, 353.274575)"><g><path d="M 79.453125 -14.15625 C 70.828125 -3.707031 60.117188 1.515625 47.328125 1.515625 C 41.347656 1.515625 35.921875 0.53125 31.046875 -1.4375 C 26.179688 -3.414062 21.992188 -6.207031 18.484375 -9.8125 C 14.984375 -13.414062 12.269531 -17.726562 10.34375 -22.75 C 8.414062 -27.769531 7.453125 -33.328125 7.453125 -39.421875 C 7.453125 -45.609375 8.46875 -51.335938 10.5 -56.609375 C 12.53125 -61.890625 15.394531 -66.40625 19.09375 -70.15625 C 22.800781 -73.914062 27.21875 -76.859375 32.34375 -78.984375 C 37.46875 -81.117188 43.070312 -82.1875 49.15625 -82.1875 C 59 -82.1875 66.609375 -79.519531 71.984375 -74.1875 C 77.367188 -68.863281 80.0625 -61.234375 80.0625 -51.296875 C 80.0625 -49.867188 79.78125 -49.003906 79.21875 -48.703125 C 78.664062 -48.398438 77.375 -48.25 75.34375 -48.25 L 25.265625 -48.25 C 25.066406 -47.4375 24.914062 -46.445312 24.8125 -45.28125 C 24.707031 -44.113281 24.65625 -42.820312 24.65625 -41.40625 C 24.65625 -36.125 25.289062 -31.328125 26.5625 -27.015625 C 27.832031 -22.703125 29.65625 -19.023438 32.03125 -15.984375 C 34.414062 -12.941406 37.257812 -10.582031 40.5625 -8.90625 C 43.863281 -7.226562 47.539062 -6.390625 51.59375 -6.390625 C 55.851562 -6.390625 59.8125 -7.328125 63.46875 -9.203125 C 67.125 -11.085938 70.878906 -14.160156 74.734375 -18.421875 Z M 54.34375 -55.25 C 56.363281 -55.25 57.984375 -55.296875 59.203125 -55.390625 C 60.421875 -55.492188 61.332031 -55.695312 61.9375 -56 C 62.550781 -56.3125 62.957031 -56.742188 63.15625 -57.296875 C 63.363281 -57.859375 63.46875 -58.597656 63.46875 -59.515625 C 63.46875 -64.179688 61.96875 -67.910156 58.96875 -70.703125 C 55.976562 -73.492188 51.894531 -74.890625 46.71875 -74.890625 C 35.757812 -74.890625 28.960938 -68.34375 26.328125 -55.25 Z M 54.34375 -55.25 "/></g></g></g><g fill="#ffffff" fill-opacity="1"><g transform="translate(675.653955, 353.274575)"><g><path d="M 73.671875 -12.78125 L 73.0625 -12.78125 C 69.40625 -7.601562 65.519531 -3.925781 61.40625 -1.75 C 57.300781 0.425781 52.457031 1.515625 46.875 1.515625 C 41.09375 1.515625 35.789062 0.476562 30.96875 -1.59375 C 26.15625 -3.675781 21.992188 -6.566406 18.484375 -10.265625 C 14.984375 -13.972656 12.242188 -18.414062 10.265625 -23.59375 C 8.296875 -28.769531 7.3125 -34.398438 7.3125 -40.484375 C 7.3125 -46.472656 8.296875 -52.03125 10.265625 -57.15625 C 12.242188 -62.28125 14.984375 -66.691406 18.484375 -70.390625 C 21.992188 -74.097656 26.179688 -76.988281 31.046875 -79.0625 C 35.921875 -81.144531 41.195312 -82.1875 46.875 -82.1875 C 51.75 -82.1875 56.085938 -81.375 59.890625 -79.75 C 63.691406 -78.125 67.367188 -75.535156 70.921875 -71.984375 L 70.921875 -87.515625 C 70.921875 -93.296875 70.84375 -98.113281 70.6875 -101.96875 C 70.539062 -105.832031 70.316406 -108.472656 70.015625 -109.890625 C 69.503906 -112.117188 68.082031 -113.691406 65.75 -114.609375 C 63.414062 -115.523438 59.613281 -115.984375 54.34375 -115.984375 L 54.34375 -120.546875 L 85.53125 -126.328125 L 85.53125 -38.5 C 85.53125 -31.5 85.582031 -25.738281 85.6875 -21.21875 C 85.789062 -16.707031 86.097656 -13.488281 86.609375 -11.5625 C 86.910156 -10.34375 87.289062 -9.328125 87.75 -8.515625 C 88.207031 -7.710938 88.863281 -7.082031 89.71875 -6.625 C 90.582031 -6.164062 91.75 -5.832031 93.21875 -5.625 C 94.695312 -5.425781 96.601562 -5.328125 98.9375 -5.328125 L 98.9375 -0.15625 L 73.671875 1.515625 Z M 70.625 -46.421875 C 70.625 -51.703125 70.34375 -55.710938 69.78125 -58.453125 C 69.226562 -61.191406 68.140625 -63.570312 66.515625 -65.59375 C 64.179688 -68.644531 61.210938 -70.957031 57.609375 -72.53125 C 54.003906 -74.101562 50.425781 -74.890625 46.875 -74.890625 C 39.570312 -74.890625 34.015625 -71.867188 30.203125 -65.828125 C 26.398438 -59.785156 24.5 -51.59375 24.5 -41.25 C 24.5 -35.875 24.976562 -31.003906 25.9375 -26.640625 C 26.90625 -22.273438 28.328125 -18.546875 30.203125 -15.453125 C 32.085938 -12.359375 34.425781 -9.972656 37.21875 -8.296875 C 40.007812 -6.617188 43.226562 -5.78125 46.875 -5.78125 C 48.707031 -5.78125 50.5625 -5.984375 52.4375 -6.390625 C 54.3125 -6.796875 56.132812 -7.429688 57.90625 -8.296875 C 59.6875 -9.160156 61.335938 -10.175781 62.859375 -11.34375 C 64.378906 -12.507812 65.648438 -13.851562 66.671875 -15.375 C 68.085938 -17.601562 69.097656 -20.289062 69.703125 -23.4375 C 70.316406 -26.582031 70.625 -30.894531 70.625 -36.375 Z M 70.625 -46.421875 "/></g></g></g><g fill="#ffffff" fill-opacity="1"><g transform="translate(778.392247, 353.274575)"><g><path d="M 34.703125 -24.203125 C 34.703125 -20.242188 34.878906 -17.070312 35.234375 -14.6875 C 35.585938 -12.300781 36.269531 -10.421875 37.28125 -9.046875 C 38.300781 -7.679688 39.722656 -6.742188 41.546875 -6.234375 C 43.378906 -5.734375 45.816406 -5.429688 48.859375 -5.328125 L 48.859375 0 L 5.171875 0 L 5.171875 -5.328125 C 8.210938 -5.429688 10.695312 -5.757812 12.625 -6.3125 C 14.5625 -6.875 16.0625 -7.785156 17.125 -9.046875 C 18.1875 -10.316406 18.894531 -12.09375 19.25 -14.375 C 19.601562 -16.664062 19.78125 -19.585938 19.78125 -23.140625 L 19.78125 -42.609375 C 19.78125 -48.492188 19.703125 -53.335938 19.546875 -57.140625 C 19.398438 -60.953125 19.125 -63.566406 18.71875 -64.984375 C 18.207031 -67.316406 17.039062 -68.914062 15.21875 -69.78125 C 13.394531 -70.644531 9.945312 -71.078125 4.875 -71.078125 L 4.875 -76.40625 L 34.703125 -82.1875 Z M 17.203125 -113.09375 C 17.203125 -115.726562 18.113281 -117.957031 19.9375 -119.78125 C 21.757812 -121.613281 23.992188 -122.53125 26.640625 -122.53125 C 29.273438 -122.53125 31.503906 -121.613281 33.328125 -119.78125 C 35.160156 -117.957031 36.078125 -115.726562 36.078125 -113.09375 C 36.078125 -110.445312 35.160156 -108.210938 33.328125 -106.390625 C 31.503906 -104.566406 29.273438 -103.65625 26.640625 -103.65625 C 23.992188 -103.65625 21.757812 -104.566406 19.9375 -106.390625 C 18.113281 -108.210938 17.203125 -110.445312 17.203125 -113.09375 Z M 17.203125 -113.09375 "/></g></g></g><g fill="#ffffff" fill-opacity="1"><g transform="translate(830.294131, 353.274575)"><g><path d="M 53.125 -45.046875 C 47.332031 -42.816406 42.429688 -40.632812 38.421875 -38.5 C 34.421875 -36.375 31.203125 -34.242188 28.765625 -32.109375 C 26.328125 -29.984375 24.578125 -27.851562 23.515625 -25.71875 C 22.453125 -23.59375 21.921875 -21.410156 21.921875 -19.171875 C 21.921875 -15.828125 23.035156 -13.085938 25.265625 -10.953125 C 27.492188 -8.828125 30.4375 -7.765625 34.09375 -7.765625 C 36.726562 -7.765625 39.1875 -8.421875 41.46875 -9.734375 C 43.757812 -11.054688 45.765625 -12.859375 47.484375 -15.140625 C 49.210938 -17.421875 50.582031 -20.109375 51.59375 -23.203125 C 52.613281 -26.304688 53.125 -29.582031 53.125 -33.03125 Z M 53.125 -51.59375 L 53.125 -57.84375 C 53.125 -70.21875 47.847656 -76.40625 37.296875 -76.40625 C 35.566406 -76.40625 34.09375 -76.253906 32.875 -75.953125 C 31.65625 -75.648438 30.640625 -75.140625 29.828125 -74.421875 C 29.015625 -73.710938 28.28125 -72.695312 27.625 -71.375 C 26.96875 -70.0625 26.332031 -68.441406 25.71875 -66.515625 C 24.601562 -63.566406 23.515625 -61.609375 22.453125 -60.640625 C 21.390625 -59.679688 19.84375 -59.203125 17.8125 -59.203125 C 12.738281 -59.203125 10.203125 -61.738281 10.203125 -66.8125 C 10.203125 -71.6875 12.785156 -75.46875 17.953125 -78.15625 C 23.128906 -80.84375 30.488281 -82.1875 40.03125 -82.1875 C 50.175781 -82.1875 57.378906 -80.382812 61.640625 -76.78125 C 65.898438 -73.1875 68.03125 -67.078125 68.03125 -58.453125 L 68.03125 -24.359375 C 68.03125 -12.785156 70.316406 -7 74.890625 -7 C 76.304688 -7 77.671875 -7.175781 78.984375 -7.53125 C 80.304688 -7.882812 81.425781 -8.820312 82.34375 -10.34375 L 84.46875 -6.703125 C 83.25 -4.367188 81.015625 -2.414062 77.765625 -0.84375 C 74.523438 0.726562 71.128906 1.515625 67.578125 1.515625 C 63.109375 1.515625 59.785156 0.0976562 57.609375 -2.734375 C 55.429688 -5.578125 54.34375 -9.585938 54.34375 -14.765625 L 53.578125 -14.765625 C 50.941406 -9.796875 47.285156 -5.863281 42.609375 -2.96875 C 37.941406 -0.0703125 32.769531 1.375 27.09375 1.375 C 20.695312 1.375 15.671875 -0.25 12.015625 -3.5 C 8.367188 -6.75 6.546875 -11.113281 6.546875 -16.59375 C 6.546875 -19.03125 6.972656 -21.363281 7.828125 -23.59375 C 8.691406 -25.820312 10.085938 -27.953125 12.015625 -29.984375 C 13.953125 -32.015625 16.492188 -34.019531 19.640625 -36 C 22.785156 -37.976562 26.640625 -39.984375 31.203125 -42.015625 Z M 53.125 -51.59375 "/></g></g></g><g fill="#ffffff" fill-opacity="1"><g transform="translate(914.615606, 353.274575)"><g><path d="M 100.15625 -87.828125 C 100.15625 -82.441406 99.289062 -77.617188 97.5625 -73.359375 C 95.832031 -69.097656 93.113281 -65.492188 89.40625 -62.546875 C 85.707031 -59.609375 80.890625 -57.328125 74.953125 -55.703125 C 69.023438 -54.078125 61.796875 -53.265625 53.265625 -53.265625 L 39.578125 -53.265625 L 39.578125 -23.890625 C 39.578125 -20.140625 39.800781 -17.070312 40.25 -14.6875 C 40.707031 -12.300781 41.671875 -10.445312 43.140625 -9.125 C 44.617188 -7.8125 46.753906 -6.925781 49.546875 -6.46875 C 52.335938 -6.007812 56.015625 -5.78125 60.578125 -5.78125 L 60.578125 0 L 6.84375 0 L 6.84375 -5.78125 C 10.394531 -5.882812 13.257812 -6.1875 15.4375 -6.6875 C 17.625 -7.195312 19.328125 -8.0625 20.546875 -9.28125 C 21.765625 -10.5 22.578125 -12.222656 22.984375 -14.453125 C 23.390625 -16.691406 23.59375 -19.585938 23.59375 -23.140625 L 23.59375 -94.0625 C 23.59375 -97.613281 23.414062 -100.476562 23.0625 -102.65625 C 22.707031 -104.84375 21.992188 -106.566406 20.921875 -107.828125 C 19.859375 -109.097656 18.3125 -109.960938 16.28125 -110.421875 C 14.25 -110.878906 11.613281 -111.207031 8.375 -111.40625 L 8.375 -117.203125 L 56.15625 -117.203125 C 70.164062 -117.203125 81 -114.613281 88.65625 -109.4375 C 96.320312 -104.257812 100.15625 -97.054688 100.15625 -87.828125 Z M 39.578125 -60.875 L 50.375 -60.875 C 60.519531 -60.875 68.050781 -62.828125 72.96875 -66.734375 C 77.894531 -70.640625 80.359375 -77.0625 80.359375 -86 C 80.359375 -94.625 78.40625 -100.785156 74.5 -104.484375 C 70.59375 -108.191406 64.476562 -110.046875 56.15625 -110.046875 L 42.15625 -110.046875 C 40.4375 -110.046875 39.578125 -109.179688 39.578125 -107.453125 Z M 39.578125 -60.875 "/></g></g></g><g fill="#ffffff" fill-opacity="1"><g transform="translate(1019.180343, 353.274575)"><g><path d="M 70.46875 -56.3125 C 70.46875 -60.476562 70.363281 -63.75 70.15625 -66.125 C 69.957031 -68.507812 69.425781 -70.335938 68.5625 -71.609375 C 67.707031 -72.878906 66.441406 -73.742188 64.765625 -74.203125 C 63.085938 -74.660156 60.78125 -75.039062 57.84375 -75.34375 L 57.84375 -80.671875 L 85.390625 -80.671875 L 85.390625 -33.9375 C 85.390625 -28.15625 85.460938 -23.4375 85.609375 -19.78125 C 85.765625 -16.132812 85.992188 -13.394531 86.296875 -11.5625 C 86.503906 -10.25 86.832031 -9.210938 87.28125 -8.453125 C 87.738281 -7.691406 88.425781 -7.082031 89.34375 -6.625 C 90.257812 -6.164062 91.453125 -5.859375 92.921875 -5.703125 C 94.390625 -5.554688 96.289062 -5.484375 98.625 -5.484375 L 98.625 -0.15625 L 73.515625 1.671875 L 71.84375 -16.59375 L 71.234375 -16.59375 C 67.378906 -10.300781 62.9375 -5.707031 57.90625 -2.8125 C 52.882812 0.0703125 47.632812 1.515625 42.15625 1.515625 C 37.894531 1.515625 33.757812 0.707031 29.75 -0.90625 C 25.75 -2.53125 22.734375 -4.710938 20.703125 -7.453125 C 18.972656 -9.691406 17.726562 -12.785156 16.96875 -16.734375 C 16.207031 -20.691406 15.828125 -25.816406 15.828125 -32.109375 L 15.828125 -56.3125 C 15.828125 -60.476562 15.722656 -63.75 15.515625 -66.125 C 15.316406 -68.507812 14.785156 -70.335938 13.921875 -71.609375 C 13.066406 -72.878906 11.800781 -73.742188 10.125 -74.203125 C 8.445312 -74.660156 6.140625 -75.039062 3.203125 -75.34375 L 3.203125 -80.671875 L 30.75 -80.671875 L 30.75 -39.109375 C 30.75 -28.054688 32.039062 -20.039062 34.625 -15.0625 C 37.207031 -10.09375 41.34375 -7.609375 47.03125 -7.609375 C 55.957031 -7.609375 62.90625 -13.441406 67.875 -25.109375 C 68.382812 -26.328125 68.789062 -27.441406 69.09375 -28.453125 C 69.40625 -29.472656 69.660156 -30.59375 69.859375 -31.8125 C 70.066406 -33.03125 70.21875 -34.398438 70.3125 -35.921875 C 70.414062 -37.441406 70.46875 -39.269531 70.46875 -41.40625 Z M 70.46875 -56.3125 "/></g></g></g><g fill="#ffffff" fill-opacity="1"><g transform="translate(1121.157621, 353.274575)"><g><path d="M 31.8125 -23.75 C 31.8125 -19.882812 31.960938 -16.785156 32.265625 -14.453125 C 32.566406 -12.117188 33.195312 -10.289062 34.15625 -8.96875 C 35.125 -7.65625 36.492188 -6.742188 38.265625 -6.234375 C 40.046875 -5.734375 42.410156 -5.429688 45.359375 -5.328125 L 45.359375 0 L 3.34375 0 L 3.34375 -5.328125 C 6.394531 -5.429688 8.832031 -5.757812 10.65625 -6.3125 C 12.476562 -6.875 13.921875 -7.765625 14.984375 -8.984375 C 16.054688 -10.203125 16.769531 -11.898438 17.125 -14.078125 C 17.476562 -16.253906 17.65625 -19.117188 17.65625 -22.671875 L 17.65625 -88.28125 C 17.65625 -93.757812 17.578125 -98.347656 17.421875 -102.046875 C 17.273438 -105.753906 17.050781 -108.269531 16.75 -109.59375 C 16.238281 -111.925781 15.039062 -113.492188 13.15625 -114.296875 C 11.28125 -115.109375 7.910156 -115.515625 3.046875 -115.515625 L 3.046875 -120.703125 L 31.8125 -126.328125 Z M 31.8125 -23.75 "/></g></g></g><g fill="#ffffff" fill-opacity="1"><g transform="translate(1170.624184, 353.274575)"><g><path d="M 13.09375 0 L 9.734375 0 L 9.734375 -26.171875 L 13.546875 -26.171875 C 17.503906 -11.867188 24.707031 -4.71875 35.15625 -4.71875 C 39.21875 -4.71875 42.441406 -5.707031 44.828125 -7.6875 C 47.210938 -9.664062 48.40625 -12.6875 48.40625 -16.75 C 48.40625 -18.269531 48.175781 -19.5625 47.71875 -20.625 C 47.257812 -21.6875 46.394531 -22.800781 45.125 -23.96875 C 43.851562 -25.132812 42.078125 -26.476562 39.796875 -28 C 37.515625 -29.519531 34.5 -31.453125 30.75 -33.796875 C 27.289062 -35.921875 24.289062 -37.894531 21.75 -39.71875 C 19.21875 -41.550781 17.085938 -43.40625 15.359375 -45.28125 C 13.640625 -47.15625 12.347656 -49.15625 11.484375 -51.28125 C 10.628906 -53.414062 10.203125 -55.90625 10.203125 -58.75 C 10.203125 -62.195312 10.785156 -65.363281 11.953125 -68.25 C 13.117188 -71.144531 14.710938 -73.609375 16.734375 -75.640625 C 18.765625 -77.671875 21.148438 -79.269531 23.890625 -80.4375 C 26.628906 -81.601562 29.625 -82.1875 32.875 -82.1875 C 35.613281 -82.1875 38.453125 -81.753906 41.390625 -80.890625 C 44.335938 -80.035156 46.925781 -78.894531 49.15625 -77.46875 L 52.203125 -80.671875 L 55.09375 -80.671875 L 55.09375 -58.75 L 51.140625 -58.75 C 48.910156 -64.9375 46.472656 -69.347656 43.828125 -71.984375 C 41.191406 -74.628906 37.945312 -75.953125 34.09375 -75.953125 C 30.644531 -75.953125 27.878906 -75.035156 25.796875 -73.203125 C 23.710938 -71.378906 22.671875 -68.84375 22.671875 -65.59375 C 22.671875 -63.875 22.953125 -62.378906 23.515625 -61.109375 C 24.078125 -59.835938 24.960938 -58.59375 26.171875 -57.375 C 27.390625 -56.15625 28.9375 -54.910156 30.8125 -53.640625 C 32.695312 -52.378906 34.957031 -50.9375 37.59375 -49.3125 C 41.957031 -46.570312 45.6875 -44.132812 48.78125 -42 C 51.875 -39.875 54.382812 -37.769531 56.3125 -35.6875 C 58.238281 -33.613281 59.660156 -31.457031 60.578125 -29.21875 C 61.492188 -26.988281 61.953125 -24.453125 61.953125 -21.609375 C 61.953125 -14.410156 59.613281 -8.753906 54.9375 -4.640625 C 50.269531 -0.535156 44.132812 1.515625 36.53125 1.515625 C 28.613281 1.515625 21.816406 -0.765625 16.140625 -5.328125 Z M 13.09375 0 "/></g></g></g><g fill="#ffffff" fill-opacity="1"><g transform="translate(1239.725178, 353.274575)"><g><path d="M 79.453125 -14.15625 C 70.828125 -3.707031 60.117188 1.515625 47.328125 1.515625 C 41.347656 1.515625 35.921875 0.53125 31.046875 -1.4375 C 26.179688 -3.414062 21.992188 -6.207031 18.484375 -9.8125 C 14.984375 -13.414062 12.269531 -17.726562 10.34375 -22.75 C 8.414062 -27.769531 7.453125 -33.328125 7.453125 -39.421875 C 7.453125 -45.609375 8.46875 -51.335938 10.5 -56.609375 C 12.53125 -61.890625 15.394531 -66.40625 19.09375 -70.15625 C 22.800781 -73.914062 27.21875 -76.859375 32.34375 -78.984375 C 37.46875 -81.117188 43.070312 -82.1875 49.15625 -82.1875 C 59 -82.1875 66.609375 -79.519531 71.984375 -74.1875 C 77.367188 -68.863281 80.0625 -61.234375 80.0625 -51.296875 C 80.0625 -49.867188 79.78125 -49.003906 79.21875 -48.703125 C 78.664062 -48.398438 77.375 -48.25 75.34375 -48.25 L 25.265625 -48.25 C 25.066406 -47.4375 24.914062 -46.445312 24.8125 -45.28125 C 24.707031 -44.113281 24.65625 -42.820312 24.65625 -41.40625 C 24.65625 -36.125 25.289062 -31.328125 26.5625 -27.015625 C 27.832031 -22.703125 29.65625 -19.023438 32.03125 -15.984375 C 34.414062 -12.941406 37.257812 -10.582031 40.5625 -8.90625 C 43.863281 -7.226562 47.539062 -6.390625 51.59375 -6.390625 C 55.851562 -6.390625 59.8125 -7.328125 63.46875 -9.203125 C 67.125 -11.085938 70.878906 -14.160156 74.734375 -18.421875 Z M 54.34375 -55.25 C 56.363281 -55.25 57.984375 -55.296875 59.203125 -55.390625 C 60.421875 -55.492188 61.332031 -55.695312 61.9375 -56 C 62.550781 -56.3125 62.957031 -56.742188 63.15625 -57.296875 C 63.363281 -57.859375 63.46875 -58.597656 63.46875 -59.515625 C 63.46875 -64.179688 61.96875 -67.910156 58.96875 -70.703125 C 55.976562 -73.492188 51.894531 -74.890625 46.71875 -74.890625 C 35.757812 -74.890625 28.960938 -68.34375 26.328125 -55.25 Z M 54.34375 -55.25 "/></g></g></g></svg>