<svg xmlns="http://www.w3.org/2000/svg" xmlns:xlink="http://www.w3.org/1999/xlink" width="2333" zoomAndPan="magnify" viewBox="0 0 1749.75 599.999999" height="800" preserveAspectRatio="xMidYMid meet" version="1.0"><defs><g/><clipPath id="6e99a6bee2"><path d="M 0 0.0429688 L 1749.5 0.0429688 L 1749.5 599.957031 L 0 599.957031 Z M 0 0.0429688 " clip-rule="nonzero"/></clipPath></defs><g clip-path="url(#6e99a6bee2)"><path fill="#ffffff" d="M 0 0.0429688 L 1749.5 0.0429688 L 1749.5 599.957031 L 0 599.957031 Z M 0 0.0429688 " fill-opacity="1" fill-rule="nonzero"/><path fill="#000000" d="M 0 0.0429688 L 1749.5 0.0429688 L 1749.5 599.957031 L 0 599.957031 Z M 0 0.0429688 " fill-opacity="1" fill-rule="nonzero"/></g><g fill="#ffffff" fill-opacity="0.4"><g transform="translate(289.794736, 358.117858)"><g><path d="M 83.71875 -27.25 L 123.28125 -117.203125 L 157.375 -117.203125 L 157.375 -111.40625 C 154.125 -111.3125 151.507812 -110.90625 149.53125 -110.1875 C 147.5625 -109.476562 146.039062 -108.285156 144.96875 -106.609375 C 143.90625 -104.941406 143.195312 -102.632812 142.84375 -99.6875 C 142.488281 -96.75 142.3125 -93 142.3125 -88.4375 L 142.3125 -28.765625 C 142.3125 -23.691406 142.515625 -19.679688 142.921875 -16.734375 C 143.328125 -13.796875 144.113281 -11.515625 145.28125 -9.890625 C 146.445312 -8.265625 148.117188 -7.195312 150.296875 -6.6875 C 152.484375 -6.1875 155.351562 -5.882812 158.90625 -5.78125 L 158.90625 0 L 109.59375 0 L 109.59375 -5.78125 C 113.132812 -5.882812 115.992188 -6.210938 118.171875 -6.765625 C 120.359375 -7.328125 122.0625 -8.367188 123.28125 -9.890625 C 124.5 -11.410156 125.3125 -13.566406 125.71875 -16.359375 C 126.125 -19.148438 126.328125 -22.929688 126.328125 -27.703125 L 126.328125 -98.328125 L 124.8125 -98.328125 L 80.359375 1.515625 L 77.015625 1.515625 L 33.328125 -98.328125 L 32.71875 -98.328125 L 32.71875 -28.765625 C 32.71875 -23.691406 32.921875 -19.679688 33.328125 -16.734375 C 33.734375 -13.796875 34.519531 -11.515625 35.6875 -9.890625 C 36.851562 -8.265625 38.523438 -7.195312 40.703125 -6.6875 C 42.890625 -6.1875 45.757812 -5.882812 49.3125 -5.78125 L 49.3125 0 L 6.84375 0 L 6.84375 -5.78125 C 10.394531 -5.882812 13.257812 -6.210938 15.4375 -6.765625 C 17.625 -7.328125 19.328125 -8.367188 20.546875 -9.890625 C 21.765625 -11.410156 22.578125 -13.566406 22.984375 -16.359375 C 23.390625 -19.148438 23.59375 -22.929688 23.59375 -27.703125 L 23.59375 -89.5 C 23.59375 -93.757812 23.414062 -97.285156 23.0625 -100.078125 C 22.707031 -102.867188 21.992188 -105.070312 20.921875 -106.6875 C 19.859375 -108.3125 18.3125 -109.453125 16.28125 -110.109375 C 14.25 -110.773438 11.613281 -111.207031 8.375 -111.40625 L 8.375 -117.203125 L 44.75 -117.203125 L 83.109375 -27.25 Z M 83.71875 -27.25 "/></g></g></g><g fill="#ffffff" fill-opacity="0.4"><g transform="translate(455.698055, 358.117858)"><g><path d="M 79.453125 -14.15625 C 70.828125 -3.707031 60.117188 1.515625 47.328125 1.515625 C 41.347656 1.515625 35.921875 0.53125 31.046875 -1.4375 C 26.179688 -3.414062 21.992188 -6.207031 18.484375 -9.8125 C 14.984375 -13.414062 12.269531 -17.726562 10.34375 -22.75 C 8.414062 -27.769531 7.453125 -33.328125 7.453125 -39.421875 C 7.453125 -45.609375 8.46875 -51.335938 10.5 -56.609375 C 12.53125 -61.890625 15.394531 -66.40625 19.09375 -70.15625 C 22.800781 -73.914062 27.21875 -76.859375 32.34375 -78.984375 C 37.46875 -81.117188 43.070312 -82.1875 49.15625 -82.1875 C 59 -82.1875 66.609375 -79.519531 71.984375 -74.1875 C 77.367188 -68.863281 80.0625 -61.234375 80.0625 -51.296875 C 80.0625 -49.867188 79.78125 -49.003906 79.21875 -48.703125 C 78.664062 -48.398438 77.375 -48.25 75.34375 -48.25 L 25.265625 -48.25 C 25.066406 -47.4375 24.914062 -46.445312 24.8125 -45.28125 C 24.707031 -44.113281 24.65625 -42.820312 24.65625 -41.40625 C 24.65625 -36.125 25.289062 -31.328125 26.5625 -27.015625 C 27.832031 -22.703125 29.65625 -19.023438 32.03125 -15.984375 C 34.414062 -12.941406 37.257812 -10.582031 40.5625 -8.90625 C 43.863281 -7.226562 47.539062 -6.390625 51.59375 -6.390625 C 55.851562 -6.390625 59.8125 -7.328125 63.46875 -9.203125 C 67.125 -11.085938 70.878906 -14.160156 74.734375 -18.421875 Z M 54.34375 -55.25 C 56.363281 -55.25 57.984375 -55.296875 59.203125 -55.390625 C 60.421875 -55.492188 61.332031 -55.695312 61.9375 -56 C 62.550781 -56.3125 62.957031 -56.742188 63.15625 -57.296875 C 63.363281 -57.859375 63.46875 -58.597656 63.46875 -59.515625 C 63.46875 -64.179688 61.96875 -67.910156 58.96875 -70.703125 C 55.976562 -73.492188 51.894531 -74.890625 46.71875 -74.890625 C 35.757812 -74.890625 28.960938 -68.34375 26.328125 -55.25 Z M 54.34375 -55.25 "/></g></g></g><g fill="#ffffff" fill-opacity="0.4"><g transform="translate(542.91144, 358.117858)"><g><path d="M 73.671875 -12.78125 L 73.0625 -12.78125 C 69.40625 -7.601562 65.519531 -3.925781 61.40625 -1.75 C 57.300781 0.425781 52.457031 1.515625 46.875 1.515625 C 41.09375 1.515625 35.789062 0.476562 30.96875 -1.59375 C 26.15625 -3.675781 21.992188 -6.566406 18.484375 -10.265625 C 14.984375 -13.972656 12.242188 -18.414062 10.265625 -23.59375 C 8.296875 -28.769531 7.3125 -34.398438 7.3125 -40.484375 C 7.3125 -46.472656 8.296875 -52.03125 10.265625 -57.15625 C 12.242188 -62.28125 14.984375 -66.691406 18.484375 -70.390625 C 21.992188 -74.097656 26.179688 -76.988281 31.046875 -79.0625 C 35.921875 -81.144531 41.195312 -82.1875 46.875 -82.1875 C 51.75 -82.1875 56.085938 -81.375 59.890625 -79.75 C 63.691406 -78.125 67.367188 -75.535156 70.921875 -71.984375 L 70.921875 -87.515625 C 70.921875 -93.296875 70.84375 -98.113281 70.6875 -101.96875 C 70.539062 -105.832031 70.316406 -108.472656 70.015625 -109.890625 C 69.503906 -112.117188 68.082031 -113.691406 65.75 -114.609375 C 63.414062 -115.523438 59.613281 -115.984375 54.34375 -115.984375 L 54.34375 -120.546875 L 85.53125 -126.328125 L 85.53125 -38.5 C 85.53125 -31.5 85.582031 -25.738281 85.6875 -21.21875 C 85.789062 -16.707031 86.097656 -13.488281 86.609375 -11.5625 C 86.910156 -10.34375 87.289062 -9.328125 87.75 -8.515625 C 88.207031 -7.710938 88.863281 -7.082031 89.71875 -6.625 C 90.582031 -6.164062 91.75 -5.832031 93.21875 -5.625 C 94.695312 -5.425781 96.601562 -5.328125 98.9375 -5.328125 L 98.9375 -0.15625 L 73.671875 1.515625 Z M 70.625 -46.421875 C 70.625 -51.703125 70.34375 -55.710938 69.78125 -58.453125 C 69.226562 -61.191406 68.140625 -63.570312 66.515625 -65.59375 C 64.179688 -68.644531 61.210938 -70.957031 57.609375 -72.53125 C 54.003906 -74.101562 50.425781 -74.890625 46.875 -74.890625 C 39.570312 -74.890625 34.015625 -71.867188 30.203125 -65.828125 C 26.398438 -59.785156 24.5 -51.59375 24.5 -41.25 C 24.5 -35.875 24.976562 -31.003906 25.9375 -26.640625 C 26.90625 -22.273438 28.328125 -18.546875 30.203125 -15.453125 C 32.085938 -12.359375 34.425781 -9.972656 37.21875 -8.296875 C 40.007812 -6.617188 43.226562 -5.78125 46.875 -5.78125 C 48.707031 -5.78125 50.5625 -5.984375 52.4375 -6.390625 C 54.3125 -6.796875 56.132812 -7.429688 57.90625 -8.296875 C 59.6875 -9.160156 61.335938 -10.175781 62.859375 -11.34375 C 64.378906 -12.507812 65.648438 -13.851562 66.671875 -15.375 C 68.085938 -17.601562 69.097656 -20.289062 69.703125 -23.4375 C 70.316406 -26.582031 70.625 -30.894531 70.625 -36.375 Z M 70.625 -46.421875 "/></g></g></g><g fill="#ffffff" fill-opacity="0.4"><g transform="translate(645.649732, 358.117858)"><g><path d="M 34.703125 -24.203125 C 34.703125 -20.242188 34.878906 -17.070312 35.234375 -14.6875 C 35.585938 -12.300781 36.269531 -10.421875 37.28125 -9.046875 C 38.300781 -7.679688 39.722656 -6.742188 41.546875 -6.234375 C 43.378906 -5.734375 45.816406 -5.429688 48.859375 -5.328125 L 48.859375 0 L 5.171875 0 L 5.171875 -5.328125 C 8.210938 -5.429688 10.695312 -5.757812 12.625 -6.3125 C 14.5625 -6.875 16.0625 -7.785156 17.125 -9.046875 C 18.1875 -10.316406 18.894531 -12.09375 19.25 -14.375 C 19.601562 -16.664062 19.78125 -19.585938 19.78125 -23.140625 L 19.78125 -42.609375 C 19.78125 -48.492188 19.703125 -53.335938 19.546875 -57.140625 C 19.398438 -60.953125 19.125 -63.566406 18.71875 -64.984375 C 18.207031 -67.316406 17.039062 -68.914062 15.21875 -69.78125 C 13.394531 -70.644531 9.945312 -71.078125 4.875 -71.078125 L 4.875 -76.40625 L 34.703125 -82.1875 Z M 17.203125 -113.09375 C 17.203125 -115.726562 18.113281 -117.957031 19.9375 -119.78125 C 21.757812 -121.613281 23.992188 -122.53125 26.640625 -122.53125 C 29.273438 -122.53125 31.503906 -121.613281 33.328125 -119.78125 C 35.160156 -117.957031 36.078125 -115.726562 36.078125 -113.09375 C 36.078125 -110.445312 35.160156 -108.210938 33.328125 -106.390625 C 31.503906 -104.566406 29.273438 -103.65625 26.640625 -103.65625 C 23.992188 -103.65625 21.757812 -104.566406 19.9375 -106.390625 C 18.113281 -108.210938 17.203125 -110.445312 17.203125 -113.09375 Z M 17.203125 -113.09375 "/></g></g></g><g fill="#ffffff" fill-opacity="0.4"><g transform="translate(697.551615, 358.117858)"><g><path d="M 53.125 -45.046875 C 47.332031 -42.816406 42.429688 -40.632812 38.421875 -38.5 C 34.421875 -36.375 31.203125 -34.242188 28.765625 -32.109375 C 26.328125 -29.984375 24.578125 -27.851562 23.515625 -25.71875 C 22.453125 -23.59375 21.921875 -21.410156 21.921875 -19.171875 C 21.921875 -15.828125 23.035156 -13.085938 25.265625 -10.953125 C 27.492188 -8.828125 30.4375 -7.765625 34.09375 -7.765625 C 36.726562 -7.765625 39.1875 -8.421875 41.46875 -9.734375 C 43.757812 -11.054688 45.765625 -12.859375 47.484375 -15.140625 C 49.210938 -17.421875 50.582031 -20.109375 51.59375 -23.203125 C 52.613281 -26.304688 53.125 -29.582031 53.125 -33.03125 Z M 53.125 -51.59375 L 53.125 -57.84375 C 53.125 -70.21875 47.847656 -76.40625 37.296875 -76.40625 C 35.566406 -76.40625 34.09375 -76.253906 32.875 -75.953125 C 31.65625 -75.648438 30.640625 -75.140625 29.828125 -74.421875 C 29.015625 -73.710938 28.28125 -72.695312 27.625 -71.375 C 26.96875 -70.0625 26.332031 -68.441406 25.71875 -66.515625 C 24.601562 -63.566406 23.515625 -61.609375 22.453125 -60.640625 C 21.390625 -59.679688 19.84375 -59.203125 17.8125 -59.203125 C 12.738281 -59.203125 10.203125 -61.738281 10.203125 -66.8125 C 10.203125 -71.6875 12.785156 -75.46875 17.953125 -78.15625 C 23.128906 -80.84375 30.488281 -82.1875 40.03125 -82.1875 C 50.175781 -82.1875 57.378906 -80.382812 61.640625 -76.78125 C 65.898438 -73.1875 68.03125 -67.078125 68.03125 -58.453125 L 68.03125 -24.359375 C 68.03125 -12.785156 70.316406 -7 74.890625 -7 C 76.304688 -7 77.671875 -7.175781 78.984375 -7.53125 C 80.304688 -7.882812 81.425781 -8.820312 82.34375 -10.34375 L 84.46875 -6.703125 C 83.25 -4.367188 81.015625 -2.414062 77.765625 -0.84375 C 74.523438 0.726562 71.128906 1.515625 67.578125 1.515625 C 63.109375 1.515625 59.785156 0.0976562 57.609375 -2.734375 C 55.429688 -5.578125 54.34375 -9.585938 54.34375 -14.765625 L 53.578125 -14.765625 C 50.941406 -9.796875 47.285156 -5.863281 42.609375 -2.96875 C 37.941406 -0.0703125 32.769531 1.375 27.09375 1.375 C 20.695312 1.375 15.671875 -0.25 12.015625 -3.5 C 8.367188 -6.75 6.546875 -11.113281 6.546875 -16.59375 C 6.546875 -19.03125 6.972656 -21.363281 7.828125 -23.59375 C 8.691406 -25.820312 10.085938 -27.953125 12.015625 -29.984375 C 13.953125 -32.015625 16.492188 -34.019531 19.640625 -36 C 22.785156 -37.976562 26.640625 -39.984375 31.203125 -42.015625 Z M 53.125 -51.59375 "/></g></g></g><g fill="#ffffff" fill-opacity="0.4"><g transform="translate(781.873091, 358.117858)"><g/></g></g><g fill="#ffffff" fill-opacity="0.4"><g transform="translate(825.555904, 358.117858)"><g><path d="M 8.828125 -35.765625 L 14.453125 -35.765625 C 15.171875 -31.203125 16.515625 -27.09375 18.484375 -23.4375 C 20.460938 -19.78125 22.945312 -16.679688 25.9375 -14.140625 C 28.9375 -11.609375 32.390625 -9.65625 36.296875 -8.28125 C 40.203125 -6.914062 44.441406 -6.234375 49.015625 -6.234375 C 56.515625 -6.234375 62.445312 -8.007812 66.8125 -11.5625 C 71.175781 -15.113281 73.359375 -19.9375 73.359375 -26.03125 C 73.359375 -28.5625 72.925781 -30.890625 72.0625 -33.015625 C 71.207031 -35.148438 69.765625 -37.207031 67.734375 -39.1875 C 65.703125 -41.164062 62.984375 -43.117188 59.578125 -45.046875 C 56.179688 -46.972656 51.894531 -49.054688 46.71875 -51.296875 C 40.4375 -54.035156 35.160156 -56.671875 30.890625 -59.203125 C 26.628906 -61.742188 23.226562 -64.382812 20.6875 -67.125 C 18.15625 -69.863281 16.359375 -72.78125 15.296875 -75.875 C 14.234375 -78.96875 13.703125 -82.492188 13.703125 -86.453125 C 13.703125 -91.117188 14.535156 -95.429688 16.203125 -99.390625 C 17.878906 -103.347656 20.238281 -106.769531 23.28125 -109.65625 C 26.332031 -112.550781 29.9375 -114.785156 34.09375 -116.359375 C 38.25 -117.929688 42.816406 -118.71875 47.796875 -118.71875 C 52.253906 -118.71875 56.410156 -118.003906 60.265625 -116.578125 C 64.128906 -115.160156 68.035156 -112.878906 71.984375 -109.734375 L 75.953125 -116.59375 L 79.453125 -116.59375 L 81.125 -86.296875 L 75.5 -86.296875 C 73.0625 -94.617188 69.53125 -100.804688 64.90625 -104.859375 C 60.289062 -108.921875 54.738281 -110.953125 48.25 -110.953125 C 42.0625 -110.953125 37.140625 -109.429688 33.484375 -106.390625 C 29.828125 -103.347656 28 -99.238281 28 -94.0625 C 28 -91.625 28.40625 -89.414062 29.21875 -87.4375 C 30.03125 -85.457031 31.347656 -83.578125 33.171875 -81.796875 C 35.003906 -80.023438 37.390625 -78.25 40.328125 -76.46875 C 43.273438 -74.695312 46.929688 -72.847656 51.296875 -70.921875 C 58.804688 -67.578125 65.046875 -64.457031 70.015625 -61.5625 C 74.984375 -58.675781 78.9375 -55.785156 81.875 -52.890625 C 84.820312 -49.992188 86.90625 -46.945312 88.125 -43.75 C 89.34375 -40.5625 89.953125 -36.988281 89.953125 -33.03125 C 89.953125 -27.957031 88.9375 -23.289062 86.90625 -19.03125 C 84.875 -14.769531 82.03125 -11.113281 78.375 -8.0625 C 74.726562 -5.019531 70.367188 -2.660156 65.296875 -0.984375 C 60.222656 0.679688 54.640625 1.515625 48.546875 1.515625 C 42.765625 1.515625 37.566406 0.707031 32.953125 -0.90625 C 28.335938 -2.53125 23.644531 -5.269531 18.875 -9.125 L 14.609375 -1.671875 L 11.109375 -1.671875 Z M 8.828125 -35.765625 "/></g></g></g><g fill="#ffffff" fill-opacity="0.4"><g transform="translate(923.728061, 358.117858)"><g><path d="M 49.46875 -82.1875 C 55.25 -82.1875 60.726562 -81.144531 65.90625 -79.0625 C 71.082031 -76.988281 75.625 -74.125 79.53125 -70.46875 C 83.4375 -66.8125 86.53125 -62.472656 88.8125 -57.453125 C 91.09375 -52.429688 92.234375 -46.925781 92.234375 -40.9375 C 92.234375 -34.75 91.09375 -29.066406 88.8125 -23.890625 C 86.53125 -18.722656 83.4375 -14.257812 79.53125 -10.5 C 75.625 -6.75 71.082031 -3.804688 65.90625 -1.671875 C 60.726562 0.453125 55.25 1.515625 49.46875 1.515625 C 43.78125 1.515625 38.375 0.476562 33.25 -1.59375 C 28.125 -3.675781 23.632812 -6.59375 19.78125 -10.34375 C 15.925781 -14.101562 12.882812 -18.59375 10.65625 -23.8125 C 8.425781 -29.039062 7.3125 -34.75 7.3125 -40.9375 C 7.3125 -46.925781 8.425781 -52.457031 10.65625 -57.53125 C 12.882812 -62.601562 15.925781 -66.960938 19.78125 -70.609375 C 23.632812 -74.265625 28.125 -77.109375 33.25 -79.140625 C 38.375 -81.171875 43.78125 -82.1875 49.46875 -82.1875 Z M 49.46875 -74.890625 C 45.707031 -74.890625 42.28125 -74.078125 39.1875 -72.453125 C 36.09375 -70.828125 33.453125 -68.515625 31.265625 -65.515625 C 29.085938 -62.523438 27.414062 -58.925781 26.25 -54.71875 C 25.082031 -50.507812 24.5 -45.867188 24.5 -40.796875 C 24.5 -35.515625 25.082031 -30.742188 26.25 -26.484375 C 27.414062 -22.222656 29.085938 -18.59375 31.265625 -15.59375 C 33.453125 -12.601562 36.066406 -10.296875 39.109375 -8.671875 C 42.160156 -7.046875 45.613281 -6.234375 49.46875 -6.234375 C 53.320312 -6.234375 56.820312 -7.046875 59.96875 -8.671875 C 63.113281 -10.296875 65.800781 -12.628906 68.03125 -15.671875 C 70.269531 -18.722656 71.992188 -22.378906 73.203125 -26.640625 C 74.421875 -30.898438 75.03125 -35.617188 75.03125 -40.796875 C 75.03125 -45.867188 74.421875 -50.484375 73.203125 -54.640625 C 71.992188 -58.796875 70.269531 -62.367188 68.03125 -65.359375 C 65.800781 -68.359375 63.113281 -70.695312 59.96875 -72.375 C 56.820312 -74.050781 53.320312 -74.890625 49.46875 -74.890625 Z M 49.46875 -74.890625 "/></g></g></g><g fill="#ffffff" fill-opacity="0.4"><g transform="translate(1023.270063, 358.117858)"><g><path d="M 70.46875 -56.3125 C 70.46875 -60.476562 70.363281 -63.75 70.15625 -66.125 C 69.957031 -68.507812 69.425781 -70.335938 68.5625 -71.609375 C 67.707031 -72.878906 66.441406 -73.742188 64.765625 -74.203125 C 63.085938 -74.660156 60.78125 -75.039062 57.84375 -75.34375 L 57.84375 -80.671875 L 85.390625 -80.671875 L 85.390625 -33.9375 C 85.390625 -28.15625 85.460938 -23.4375 85.609375 -19.78125 C 85.765625 -16.132812 85.992188 -13.394531 86.296875 -11.5625 C 86.503906 -10.25 86.832031 -9.210938 87.28125 -8.453125 C 87.738281 -7.691406 88.425781 -7.082031 89.34375 -6.625 C 90.257812 -6.164062 91.453125 -5.859375 92.921875 -5.703125 C 94.390625 -5.554688 96.289062 -5.484375 98.625 -5.484375 L 98.625 -0.15625 L 73.515625 1.671875 L 71.84375 -16.59375 L 71.234375 -16.59375 C 67.378906 -10.300781 62.9375 -5.707031 57.90625 -2.8125 C 52.882812 0.0703125 47.632812 1.515625 42.15625 1.515625 C 37.894531 1.515625 33.757812 0.707031 29.75 -0.90625 C 25.75 -2.53125 22.734375 -4.710938 20.703125 -7.453125 C 18.972656 -9.691406 17.726562 -12.785156 16.96875 -16.734375 C 16.207031 -20.691406 15.828125 -25.816406 15.828125 -32.109375 L 15.828125 -56.3125 C 15.828125 -60.476562 15.722656 -63.75 15.515625 -66.125 C 15.316406 -68.507812 14.785156 -70.335938 13.921875 -71.609375 C 13.066406 -72.878906 11.800781 -73.742188 10.125 -74.203125 C 8.445312 -74.660156 6.140625 -75.039062 3.203125 -75.34375 L 3.203125 -80.671875 L 30.75 -80.671875 L 30.75 -39.109375 C 30.75 -28.054688 32.039062 -20.039062 34.625 -15.0625 C 37.207031 -10.09375 41.34375 -7.609375 47.03125 -7.609375 C 55.957031 -7.609375 62.90625 -13.441406 67.875 -25.109375 C 68.382812 -26.328125 68.789062 -27.441406 69.09375 -28.453125 C 69.40625 -29.472656 69.660156 -30.59375 69.859375 -31.8125 C 70.066406 -33.03125 70.21875 -34.398438 70.3125 -35.921875 C 70.414062 -37.441406 70.46875 -39.269531 70.46875 -41.40625 Z M 70.46875 -56.3125 "/></g></g></g><g fill="#ffffff" fill-opacity="0.4"><g transform="translate(1125.247295, 358.117858)"><g><path d="M 33.796875 -24.203125 C 33.796875 -20.035156 33.894531 -16.734375 34.09375 -14.296875 C 34.289062 -11.867188 34.820312 -10.019531 35.6875 -8.75 C 36.550781 -7.476562 37.796875 -6.640625 39.421875 -6.234375 C 41.046875 -5.828125 43.328125 -5.523438 46.265625 -5.328125 L 46.265625 0 L 5.78125 0 L 5.78125 -5.328125 C 8.726562 -5.429688 11.0625 -5.707031 12.78125 -6.15625 C 14.507812 -6.613281 15.828125 -7.453125 16.734375 -8.671875 C 17.648438 -9.890625 18.234375 -11.640625 18.484375 -13.921875 C 18.742188 -16.203125 18.875 -19.273438 18.875 -23.140625 L 18.875 -40.9375 C 18.875 -47.84375 18.796875 -53.222656 18.640625 -57.078125 C 18.492188 -60.929688 17.988281 -63.769531 17.125 -65.59375 C 16.257812 -67.425781 14.910156 -68.519531 13.078125 -68.875 C 11.253906 -69.226562 8.722656 -69.40625 5.484375 -69.40625 L 5.484375 -74.734375 L 32.109375 -80.515625 L 34.25 -61.640625 L 34.859375 -61.640625 C 36.171875 -64.679688 37.816406 -67.46875 39.796875 -70 C 41.773438 -72.539062 43.929688 -74.695312 46.265625 -76.46875 C 48.597656 -78.25 51.03125 -79.644531 53.5625 -80.65625 C 56.101562 -81.675781 58.695312 -82.1875 61.34375 -82.1875 C 64.582031 -82.1875 67.140625 -81.398438 69.015625 -79.828125 C 70.898438 -78.253906 71.84375 -76.148438 71.84375 -73.515625 C 71.84375 -71.078125 71.082031 -69.171875 69.5625 -67.796875 C 68.039062 -66.429688 65.859375 -65.75 63.015625 -65.75 C 61.390625 -65.75 60.019531 -65.953125 58.90625 -66.359375 C 57.789062 -66.765625 56.800781 -67.195312 55.9375 -67.65625 C 55.070312 -68.113281 54.257812 -68.546875 53.5 -68.953125 C 52.738281 -69.359375 51.898438 -69.5625 50.984375 -69.5625 C 48.242188 -69.5625 45.503906 -67.8125 42.765625 -64.3125 C 40.023438 -60.8125 37.894531 -56.367188 36.375 -50.984375 C 35.5625 -48.046875 34.925781 -44.722656 34.46875 -41.015625 C 34.019531 -37.316406 33.796875 -33.4375 33.796875 -29.375 Z M 33.796875 -24.203125 "/></g></g></g><g fill="#ffffff" fill-opacity="0.4"><g transform="translate(1197.84904, 358.117858)"><g><path d="M 77.015625 -12.640625 C 73.359375 -8.171875 68.640625 -4.691406 62.859375 -2.203125 C 57.078125 0.273438 50.835938 1.515625 44.140625 1.515625 C 38.765625 1.515625 33.816406 0.53125 29.296875 -1.4375 C 24.785156 -3.414062 20.90625 -6.207031 17.65625 -9.8125 C 14.40625 -13.414062 11.890625 -17.753906 10.109375 -22.828125 C 8.335938 -27.898438 7.453125 -33.53125 7.453125 -39.71875 C 7.453125 -46.21875 8.46875 -52.078125 10.5 -57.296875 C 12.53125 -62.523438 15.394531 -66.988281 19.09375 -70.6875 C 22.800781 -74.394531 27.265625 -77.238281 32.484375 -79.21875 C 37.710938 -81.195312 43.472656 -82.1875 49.765625 -82.1875 C 53.722656 -82.1875 57.328125 -81.859375 60.578125 -81.203125 C 63.828125 -80.546875 66.640625 -79.628906 69.015625 -78.453125 C 71.398438 -77.285156 73.253906 -75.863281 74.578125 -74.1875 C 75.898438 -72.519531 76.5625 -70.722656 76.5625 -68.796875 C 76.5625 -66.765625 75.898438 -65.191406 74.578125 -64.078125 C 73.253906 -62.960938 71.425781 -62.40625 69.09375 -62.40625 C 67.269531 -62.40625 65.75 -62.785156 64.53125 -63.546875 C 63.3125 -64.304688 61.738281 -66.003906 59.8125 -68.640625 C 57.78125 -70.972656 55.828125 -72.617188 53.953125 -73.578125 C 52.078125 -74.546875 49.664062 -75.03125 46.71875 -75.03125 C 39.519531 -75.03125 34.066406 -72.238281 30.359375 -66.65625 C 26.660156 -61.082031 24.8125 -52.867188 24.8125 -42.015625 C 24.8125 -30.335938 26.863281 -21.476562 30.96875 -15.4375 C 35.082031 -9.40625 41.097656 -6.390625 49.015625 -6.390625 C 53.273438 -6.390625 57.28125 -7.226562 61.03125 -8.90625 C 64.789062 -10.582031 68.597656 -13.296875 72.453125 -17.046875 Z M 77.015625 -12.640625 "/></g></g></g><g fill="#ffffff" fill-opacity="0.4"><g transform="translate(1279.430825, 358.117858)"><g><path d="M 79.453125 -14.15625 C 70.828125 -3.707031 60.117188 1.515625 47.328125 1.515625 C 41.347656 1.515625 35.921875 0.53125 31.046875 -1.4375 C 26.179688 -3.414062 21.992188 -6.207031 18.484375 -9.8125 C 14.984375 -13.414062 12.269531 -17.726562 10.34375 -22.75 C 8.414062 -27.769531 7.453125 -33.328125 7.453125 -39.421875 C 7.453125 -45.609375 8.46875 -51.335938 10.5 -56.609375 C 12.53125 -61.890625 15.394531 -66.40625 19.09375 -70.15625 C 22.800781 -73.914062 27.21875 -76.859375 32.34375 -78.984375 C 37.46875 -81.117188 43.070312 -82.1875 49.15625 -82.1875 C 59 -82.1875 66.609375 -79.519531 71.984375 -74.1875 C 77.367188 -68.863281 80.0625 -61.234375 80.0625 -51.296875 C 80.0625 -49.867188 79.78125 -49.003906 79.21875 -48.703125 C 78.664062 -48.398438 77.375 -48.25 75.34375 -48.25 L 25.265625 -48.25 C 25.066406 -47.4375 24.914062 -46.445312 24.8125 -45.28125 C 24.707031 -44.113281 24.65625 -42.820312 24.65625 -41.40625 C 24.65625 -36.125 25.289062 -31.328125 26.5625 -27.015625 C 27.832031 -22.703125 29.65625 -19.023438 32.03125 -15.984375 C 34.414062 -12.941406 37.257812 -10.582031 40.5625 -8.90625 C 43.863281 -7.226562 47.539062 -6.390625 51.59375 -6.390625 C 55.851562 -6.390625 59.8125 -7.328125 63.46875 -9.203125 C 67.125 -11.085938 70.878906 -14.160156 74.734375 -18.421875 Z M 54.34375 -55.25 C 56.363281 -55.25 57.984375 -55.296875 59.203125 -55.390625 C 60.421875 -55.492188 61.332031 -55.695312 61.9375 -56 C 62.550781 -56.3125 62.957031 -56.742188 63.15625 -57.296875 C 63.363281 -57.859375 63.46875 -58.597656 63.46875 -59.515625 C 63.46875 -64.179688 61.96875 -67.910156 58.96875 -70.703125 C 55.976562 -73.492188 51.894531 -74.890625 46.71875 -74.890625 C 35.757812 -74.890625 28.960938 -68.34375 26.328125 -55.25 Z M 54.34375 -55.25 "/></g></g></g><g fill="#ffffff" fill-opacity="0.4"><g transform="translate(1366.644221, 358.117858)"><g><path d="M 73.671875 -12.78125 L 73.0625 -12.78125 C 69.40625 -7.601562 65.519531 -3.925781 61.40625 -1.75 C 57.300781 0.425781 52.457031 1.515625 46.875 1.515625 C 41.09375 1.515625 35.789062 0.476562 30.96875 -1.59375 C 26.15625 -3.675781 21.992188 -6.566406 18.484375 -10.265625 C 14.984375 -13.972656 12.242188 -18.414062 10.265625 -23.59375 C 8.296875 -28.769531 7.3125 -34.398438 7.3125 -40.484375 C 7.3125 -46.472656 8.296875 -52.03125 10.265625 -57.15625 C 12.242188 -62.28125 14.984375 -66.691406 18.484375 -70.390625 C 21.992188 -74.097656 26.179688 -76.988281 31.046875 -79.0625 C 35.921875 -81.144531 41.195312 -82.1875 46.875 -82.1875 C 51.75 -82.1875 56.085938 -81.375 59.890625 -79.75 C 63.691406 -78.125 67.367188 -75.535156 70.921875 -71.984375 L 70.921875 -87.515625 C 70.921875 -93.296875 70.84375 -98.113281 70.6875 -101.96875 C 70.539062 -105.832031 70.316406 -108.472656 70.015625 -109.890625 C 69.503906 -112.117188 68.082031 -113.691406 65.75 -114.609375 C 63.414062 -115.523438 59.613281 -115.984375 54.34375 -115.984375 L 54.34375 -120.546875 L 85.53125 -126.328125 L 85.53125 -38.5 C 85.53125 -31.5 85.582031 -25.738281 85.6875 -21.21875 C 85.789062 -16.707031 86.097656 -13.488281 86.609375 -11.5625 C 86.910156 -10.34375 87.289062 -9.328125 87.75 -8.515625 C 88.207031 -7.710938 88.863281 -7.082031 89.71875 -6.625 C 90.582031 -6.164062 91.75 -5.832031 93.21875 -5.625 C 94.695312 -5.425781 96.601562 -5.328125 98.9375 -5.328125 L 98.9375 -0.15625 L 73.671875 1.515625 Z M 70.625 -46.421875 C 70.625 -51.703125 70.34375 -55.710938 69.78125 -58.453125 C 69.226562 -61.191406 68.140625 -63.570312 66.515625 -65.59375 C 64.179688 -68.644531 61.210938 -70.957031 57.609375 -72.53125 C 54.003906 -74.101562 50.425781 -74.890625 46.875 -74.890625 C 39.570312 -74.890625 34.015625 -71.867188 30.203125 -65.828125 C 26.398438 -59.785156 24.5 -51.59375 24.5 -41.25 C 24.5 -35.875 24.976562 -31.003906 25.9375 -26.640625 C 26.90625 -22.273438 28.328125 -18.546875 30.203125 -15.453125 C 32.085938 -12.359375 34.425781 -9.972656 37.21875 -8.296875 C 40.007812 -6.617188 43.226562 -5.78125 46.875 -5.78125 C 48.707031 -5.78125 50.5625 -5.984375 52.4375 -6.390625 C 54.3125 -6.796875 56.132812 -7.429688 57.90625 -8.296875 C 59.6875 -9.160156 61.335938 -10.175781 62.859375 -11.34375 C 64.378906 -12.507812 65.648438 -13.851562 66.671875 -15.375 C 68.085938 -17.601562 69.097656 -20.289062 69.703125 -23.4375 C 70.316406 -26.582031 70.625 -30.894531 70.625 -36.375 Z M 70.625 -46.421875 "/></g></g></g><g fill="#ffffff" fill-opacity="1"><g transform="translate(284.951453, 353.274575)"><g><path d="M 83.71875 -27.25 L 123.28125 -117.203125 L 157.375 -117.203125 L 157.375 -111.40625 C 154.125 -111.3125 151.507812 -110.90625 149.53125 -110.1875 C 147.5625 -109.476562 146.039062 -108.285156 144.96875 -106.609375 C 143.90625 -104.941406 143.195312 -102.632812 142.84375 -99.6875 C 142.488281 -96.75 142.3125 -93 142.3125 -88.4375 L 142.3125 -28.765625 C 142.3125 -23.691406 142.515625 -19.679688 142.921875 -16.734375 C 143.328125 -13.796875 144.113281 -11.515625 145.28125 -9.890625 C 146.445312 -8.265625 148.117188 -7.195312 150.296875 -6.6875 C 152.484375 -6.1875 155.351562 -5.882812 158.90625 -5.78125 L 158.90625 0 L 109.59375 0 L 109.59375 -5.78125 C 113.132812 -5.882812 115.992188 -6.210938 118.171875 -6.765625 C 120.359375 -7.328125 122.0625 -8.367188 123.28125 -9.890625 C 124.5 -11.410156 125.3125 -13.566406 125.71875 -16.359375 C 126.125 -19.148438 126.328125 -22.929688 126.328125 -27.703125 L 126.328125 -98.328125 L 124.8125 -98.328125 L 80.359375 1.515625 L 77.015625 1.515625 L 33.328125 -98.328125 L 32.71875 -98.328125 L 32.71875 -28.765625 C 32.71875 -23.691406 32.921875 -19.679688 33.328125 -16.734375 C 33.734375 -13.796875 34.519531 -11.515625 35.6875 -9.890625 C 36.851562 -8.265625 38.523438 -7.195312 40.703125 -6.6875 C 42.890625 -6.1875 45.757812 -5.882812 49.3125 -5.78125 L 49.3125 0 L 6.84375 0 L 6.84375 -5.78125 C 10.394531 -5.882812 13.257812 -6.210938 15.4375 -6.765625 C 17.625 -7.328125 19.328125 -8.367188 20.546875 -9.890625 C 21.765625 -11.410156 22.578125 -13.566406 22.984375 -16.359375 C 23.390625 -19.148438 23.59375 -22.929688 23.59375 -27.703125 L 23.59375 -89.5 C 23.59375 -93.757812 23.414062 -97.285156 23.0625 -100.078125 C 22.707031 -102.867188 21.992188 -105.070312 20.921875 -106.6875 C 19.859375 -108.3125 18.3125 -109.453125 16.28125 -110.109375 C 14.25 -110.773438 11.613281 -111.207031 8.375 -111.40625 L 8.375 -117.203125 L 44.75 -117.203125 L 83.109375 -27.25 Z M 83.71875 -27.25 "/></g></g></g><g fill="#ffffff" fill-opacity="1"><g transform="translate(450.854772, 353.274575)"><g><path d="M 79.453125 -14.15625 C 70.828125 -3.707031 60.117188 1.515625 47.328125 1.515625 C 41.347656 1.515625 35.921875 0.53125 31.046875 -1.4375 C 26.179688 -3.414062 21.992188 -6.207031 18.484375 -9.8125 C 14.984375 -13.414062 12.269531 -17.726562 10.34375 -22.75 C 8.414062 -27.769531 7.453125 -33.328125 7.453125 -39.421875 C 7.453125 -45.609375 8.46875 -51.335938 10.5 -56.609375 C 12.53125 -61.890625 15.394531 -66.40625 19.09375 -70.15625 C 22.800781 -73.914062 27.21875 -76.859375 32.34375 -78.984375 C 37.46875 -81.117188 43.070312 -82.1875 49.15625 -82.1875 C 59 -82.1875 66.609375 -79.519531 71.984375 -74.1875 C 77.367188 -68.863281 80.0625 -61.234375 80.0625 -51.296875 C 80.0625 -49.867188 79.78125 -49.003906 79.21875 -48.703125 C 78.664062 -48.398438 77.375 -48.25 75.34375 -48.25 L 25.265625 -48.25 C 25.066406 -47.4375 24.914062 -46.445312 24.8125 -45.28125 C 24.707031 -44.113281 24.65625 -42.820312 24.65625 -41.40625 C 24.65625 -36.125 25.289062 -31.328125 26.5625 -27.015625 C 27.832031 -22.703125 29.65625 -19.023438 32.03125 -15.984375 C 34.414062 -12.941406 37.257812 -10.582031 40.5625 -8.90625 C 43.863281 -7.226562 47.539062 -6.390625 51.59375 -6.390625 C 55.851562 -6.390625 59.8125 -7.328125 63.46875 -9.203125 C 67.125 -11.085938 70.878906 -14.160156 74.734375 -18.421875 Z M 54.34375 -55.25 C 56.363281 -55.25 57.984375 -55.296875 59.203125 -55.390625 C 60.421875 -55.492188 61.332031 -55.695312 61.9375 -56 C 62.550781 -56.3125 62.957031 -56.742188 63.15625 -57.296875 C 63.363281 -57.859375 63.46875 -58.597656 63.46875 -59.515625 C 63.46875 -64.179688 61.96875 -67.910156 58.96875 -70.703125 C 55.976562 -73.492188 51.894531 -74.890625 46.71875 -74.890625 C 35.757812 -74.890625 28.960938 -68.34375 26.328125 -55.25 Z M 54.34375 -55.25 "/></g></g></g><g fill="#ffffff" fill-opacity="1"><g transform="translate(538.068157, 353.274575)"><g><path d="M 73.671875 -12.78125 L 73.0625 -12.78125 C 69.40625 -7.601562 65.519531 -3.925781 61.40625 -1.75 C 57.300781 0.425781 52.457031 1.515625 46.875 1.515625 C 41.09375 1.515625 35.789062 0.476562 30.96875 -1.59375 C 26.15625 -3.675781 21.992188 -6.566406 18.484375 -10.265625 C 14.984375 -13.972656 12.242188 -18.414062 10.265625 -23.59375 C 8.296875 -28.769531 7.3125 -34.398438 7.3125 -40.484375 C 7.3125 -46.472656 8.296875 -52.03125 10.265625 -57.15625 C 12.242188 -62.28125 14.984375 -66.691406 18.484375 -70.390625 C 21.992188 -74.097656 26.179688 -76.988281 31.046875 -79.0625 C 35.921875 -81.144531 41.195312 -82.1875 46.875 -82.1875 C 51.75 -82.1875 56.085938 -81.375 59.890625 -79.75 C 63.691406 -78.125 67.367188 -75.535156 70.921875 -71.984375 L 70.921875 -87.515625 C 70.921875 -93.296875 70.84375 -98.113281 70.6875 -101.96875 C 70.539062 -105.832031 70.316406 -108.472656 70.015625 -109.890625 C 69.503906 -112.117188 68.082031 -113.691406 65.75 -114.609375 C 63.414062 -115.523438 59.613281 -115.984375 54.34375 -115.984375 L 54.34375 -120.546875 L 85.53125 -126.328125 L 85.53125 -38.5 C 85.53125 -31.5 85.582031 -25.738281 85.6875 -21.21875 C 85.789062 -16.707031 86.097656 -13.488281 86.609375 -11.5625 C 86.910156 -10.34375 87.289062 -9.328125 87.75 -8.515625 C 88.207031 -7.710938 88.863281 -7.082031 89.71875 -6.625 C 90.582031 -6.164062 91.75 -5.832031 93.21875 -5.625 C 94.695312 -5.425781 96.601562 -5.328125 98.9375 -5.328125 L 98.9375 -0.15625 L 73.671875 1.515625 Z M 70.625 -46.421875 C 70.625 -51.703125 70.34375 -55.710938 69.78125 -58.453125 C 69.226562 -61.191406 68.140625 -63.570312 66.515625 -65.59375 C 64.179688 -68.644531 61.210938 -70.957031 57.609375 -72.53125 C 54.003906 -74.101562 50.425781 -74.890625 46.875 -74.890625 C 39.570312 -74.890625 34.015625 -71.867188 30.203125 -65.828125 C 26.398438 -59.785156 24.5 -51.59375 24.5 -41.25 C 24.5 -35.875 24.976562 -31.003906 25.9375 -26.640625 C 26.90625 -22.273438 28.328125 -18.546875 30.203125 -15.453125 C 32.085938 -12.359375 34.425781 -9.972656 37.21875 -8.296875 C 40.007812 -6.617188 43.226562 -5.78125 46.875 -5.78125 C 48.707031 -5.78125 50.5625 -5.984375 52.4375 -6.390625 C 54.3125 -6.796875 56.132812 -7.429688 57.90625 -8.296875 C 59.6875 -9.160156 61.335938 -10.175781 62.859375 -11.34375 C 64.378906 -12.507812 65.648438 -13.851562 66.671875 -15.375 C 68.085938 -17.601562 69.097656 -20.289062 69.703125 -23.4375 C 70.316406 -26.582031 70.625 -30.894531 70.625 -36.375 Z M 70.625 -46.421875 "/></g></g></g><g fill="#ffffff" fill-opacity="1"><g transform="translate(640.806449, 353.274575)"><g><path d="M 34.703125 -24.203125 C 34.703125 -20.242188 34.878906 -17.070312 35.234375 -14.6875 C 35.585938 -12.300781 36.269531 -10.421875 37.28125 -9.046875 C 38.300781 -7.679688 39.722656 -6.742188 41.546875 -6.234375 C 43.378906 -5.734375 45.816406 -5.429688 48.859375 -5.328125 L 48.859375 0 L 5.171875 0 L 5.171875 -5.328125 C 8.210938 -5.429688 10.695312 -5.757812 12.625 -6.3125 C 14.5625 -6.875 16.0625 -7.785156 17.125 -9.046875 C 18.1875 -10.316406 18.894531 -12.09375 19.25 -14.375 C 19.601562 -16.664062 19.78125 -19.585938 19.78125 -23.140625 L 19.78125 -42.609375 C 19.78125 -48.492188 19.703125 -53.335938 19.546875 -57.140625 C 19.398438 -60.953125 19.125 -63.566406 18.71875 -64.984375 C 18.207031 -67.316406 17.039062 -68.914062 15.21875 -69.78125 C 13.394531 -70.644531 9.945312 -71.078125 4.875 -71.078125 L 4.875 -76.40625 L 34.703125 -82.1875 Z M 17.203125 -113.09375 C 17.203125 -115.726562 18.113281 -117.957031 19.9375 -119.78125 C 21.757812 -121.613281 23.992188 -122.53125 26.640625 -122.53125 C 29.273438 -122.53125 31.503906 -121.613281 33.328125 -119.78125 C 35.160156 -117.957031 36.078125 -115.726562 36.078125 -113.09375 C 36.078125 -110.445312 35.160156 -108.210938 33.328125 -106.390625 C 31.503906 -104.566406 29.273438 -103.65625 26.640625 -103.65625 C 23.992188 -103.65625 21.757812 -104.566406 19.9375 -106.390625 C 18.113281 -108.210938 17.203125 -110.445312 17.203125 -113.09375 Z M 17.203125 -113.09375 "/></g></g></g><g fill="#ffffff" fill-opacity="1"><g transform="translate(692.708332, 353.274575)"><g><path d="M 53.125 -45.046875 C 47.332031 -42.816406 42.429688 -40.632812 38.421875 -38.5 C 34.421875 -36.375 31.203125 -34.242188 28.765625 -32.109375 C 26.328125 -29.984375 24.578125 -27.851562 23.515625 -25.71875 C 22.453125 -23.59375 21.921875 -21.410156 21.921875 -19.171875 C 21.921875 -15.828125 23.035156 -13.085938 25.265625 -10.953125 C 27.492188 -8.828125 30.4375 -7.765625 34.09375 -7.765625 C 36.726562 -7.765625 39.1875 -8.421875 41.46875 -9.734375 C 43.757812 -11.054688 45.765625 -12.859375 47.484375 -15.140625 C 49.210938 -17.421875 50.582031 -20.109375 51.59375 -23.203125 C 52.613281 -26.304688 53.125 -29.582031 53.125 -33.03125 Z M 53.125 -51.59375 L 53.125 -57.84375 C 53.125 -70.21875 47.847656 -76.40625 37.296875 -76.40625 C 35.566406 -76.40625 34.09375 -76.253906 32.875 -75.953125 C 31.65625 -75.648438 30.640625 -75.140625 29.828125 -74.421875 C 29.015625 -73.710938 28.28125 -72.695312 27.625 -71.375 C 26.96875 -70.0625 26.332031 -68.441406 25.71875 -66.515625 C 24.601562 -63.566406 23.515625 -61.609375 22.453125 -60.640625 C 21.390625 -59.679688 19.84375 -59.203125 17.8125 -59.203125 C 12.738281 -59.203125 10.203125 -61.738281 10.203125 -66.8125 C 10.203125 -71.6875 12.785156 -75.46875 17.953125 -78.15625 C 23.128906 -80.84375 30.488281 -82.1875 40.03125 -82.1875 C 50.175781 -82.1875 57.378906 -80.382812 61.640625 -76.78125 C 65.898438 -73.1875 68.03125 -67.078125 68.03125 -58.453125 L 68.03125 -24.359375 C 68.03125 -12.785156 70.316406 -7 74.890625 -7 C 76.304688 -7 77.671875 -7.175781 78.984375 -7.53125 C 80.304688 -7.882812 81.425781 -8.820312 82.34375 -10.34375 L 84.46875 -6.703125 C 83.25 -4.367188 81.015625 -2.414062 77.765625 -0.84375 C 74.523438 0.726562 71.128906 1.515625 67.578125 1.515625 C 63.109375 1.515625 59.785156 0.0976562 57.609375 -2.734375 C 55.429688 -5.578125 54.34375 -9.585938 54.34375 -14.765625 L 53.578125 -14.765625 C 50.941406 -9.796875 47.285156 -5.863281 42.609375 -2.96875 C 37.941406 -0.0703125 32.769531 1.375 27.09375 1.375 C 20.695312 1.375 15.671875 -0.25 12.015625 -3.5 C 8.367188 -6.75 6.546875 -11.113281 6.546875 -16.59375 C 6.546875 -19.03125 6.972656 -21.363281 7.828125 -23.59375 C 8.691406 -25.820312 10.085938 -27.953125 12.015625 -29.984375 C 13.953125 -32.015625 16.492188 -34.019531 19.640625 -36 C 22.785156 -37.976562 26.640625 -39.984375 31.203125 -42.015625 Z M 53.125 -51.59375 "/></g></g></g><g fill="#ffffff" fill-opacity="1"><g transform="translate(777.029808, 353.274575)"><g/></g></g><g fill="#ffffff" fill-opacity="1"><g transform="translate(820.712621, 353.274575)"><g><path d="M 8.828125 -35.765625 L 14.453125 -35.765625 C 15.171875 -31.203125 16.515625 -27.09375 18.484375 -23.4375 C 20.460938 -19.78125 22.945312 -16.679688 25.9375 -14.140625 C 28.9375 -11.609375 32.390625 -9.65625 36.296875 -8.28125 C 40.203125 -6.914062 44.441406 -6.234375 49.015625 -6.234375 C 56.515625 -6.234375 62.445312 -8.007812 66.8125 -11.5625 C 71.175781 -15.113281 73.359375 -19.9375 73.359375 -26.03125 C 73.359375 -28.5625 72.925781 -30.890625 72.0625 -33.015625 C 71.207031 -35.148438 69.765625 -37.207031 67.734375 -39.1875 C 65.703125 -41.164062 62.984375 -43.117188 59.578125 -45.046875 C 56.179688 -46.972656 51.894531 -49.054688 46.71875 -51.296875 C 40.4375 -54.035156 35.160156 -56.671875 30.890625 -59.203125 C 26.628906 -61.742188 23.226562 -64.382812 20.6875 -67.125 C 18.15625 -69.863281 16.359375 -72.78125 15.296875 -75.875 C 14.234375 -78.96875 13.703125 -82.492188 13.703125 -86.453125 C 13.703125 -91.117188 14.535156 -95.429688 16.203125 -99.390625 C 17.878906 -103.347656 20.238281 -106.769531 23.28125 -109.65625 C 26.332031 -112.550781 29.9375 -114.785156 34.09375 -116.359375 C 38.25 -117.929688 42.816406 -118.71875 47.796875 -118.71875 C 52.253906 -118.71875 56.410156 -118.003906 60.265625 -116.578125 C 64.128906 -115.160156 68.035156 -112.878906 71.984375 -109.734375 L 75.953125 -116.59375 L 79.453125 -116.59375 L 81.125 -86.296875 L 75.5 -86.296875 C 73.0625 -94.617188 69.53125 -100.804688 64.90625 -104.859375 C 60.289062 -108.921875 54.738281 -110.953125 48.25 -110.953125 C 42.0625 -110.953125 37.140625 -109.429688 33.484375 -106.390625 C 29.828125 -103.347656 28 -99.238281 28 -94.0625 C 28 -91.625 28.40625 -89.414062 29.21875 -87.4375 C 30.03125 -85.457031 31.347656 -83.578125 33.171875 -81.796875 C 35.003906 -80.023438 37.390625 -78.25 40.328125 -76.46875 C 43.273438 -74.695312 46.929688 -72.847656 51.296875 -70.921875 C 58.804688 -67.578125 65.046875 -64.457031 70.015625 -61.5625 C 74.984375 -58.675781 78.9375 -55.785156 81.875 -52.890625 C 84.820312 -49.992188 86.90625 -46.945312 88.125 -43.75 C 89.34375 -40.5625 89.953125 -36.988281 89.953125 -33.03125 C 89.953125 -27.957031 88.9375 -23.289062 86.90625 -19.03125 C 84.875 -14.769531 82.03125 -11.113281 78.375 -8.0625 C 74.726562 -5.019531 70.367188 -2.660156 65.296875 -0.984375 C 60.222656 0.679688 54.640625 1.515625 48.546875 1.515625 C 42.765625 1.515625 37.566406 0.707031 32.953125 -0.90625 C 28.335938 -2.53125 23.644531 -5.269531 18.875 -9.125 L 14.609375 -1.671875 L 11.109375 -1.671875 Z M 8.828125 -35.765625 "/></g></g></g><g fill="#ffffff" fill-opacity="1"><g transform="translate(918.884778, 353.274575)"><g><path d="M 49.46875 -82.1875 C 55.25 -82.1875 60.726562 -81.144531 65.90625 -79.0625 C 71.082031 -76.988281 75.625 -74.125 79.53125 -70.46875 C 83.4375 -66.8125 86.53125 -62.472656 88.8125 -57.453125 C 91.09375 -52.429688 92.234375 -46.925781 92.234375 -40.9375 C 92.234375 -34.75 91.09375 -29.066406 88.8125 -23.890625 C 86.53125 -18.722656 83.4375 -14.257812 79.53125 -10.5 C 75.625 -6.75 71.082031 -3.804688 65.90625 -1.671875 C 60.726562 0.453125 55.25 1.515625 49.46875 1.515625 C 43.78125 1.515625 38.375 0.476562 33.25 -1.59375 C 28.125 -3.675781 23.632812 -6.59375 19.78125 -10.34375 C 15.925781 -14.101562 12.882812 -18.59375 10.65625 -23.8125 C 8.425781 -29.039062 7.3125 -34.75 7.3125 -40.9375 C 7.3125 -46.925781 8.425781 -52.457031 10.65625 -57.53125 C 12.882812 -62.601562 15.925781 -66.960938 19.78125 -70.609375 C 23.632812 -74.265625 28.125 -77.109375 33.25 -79.140625 C 38.375 -81.171875 43.78125 -82.1875 49.46875 -82.1875 Z M 49.46875 -74.890625 C 45.707031 -74.890625 42.28125 -74.078125 39.1875 -72.453125 C 36.09375 -70.828125 33.453125 -68.515625 31.265625 -65.515625 C 29.085938 -62.523438 27.414062 -58.925781 26.25 -54.71875 C 25.082031 -50.507812 24.5 -45.867188 24.5 -40.796875 C 24.5 -35.515625 25.082031 -30.742188 26.25 -26.484375 C 27.414062 -22.222656 29.085938 -18.59375 31.265625 -15.59375 C 33.453125 -12.601562 36.066406 -10.296875 39.109375 -8.671875 C 42.160156 -7.046875 45.613281 -6.234375 49.46875 -6.234375 C 53.320312 -6.234375 56.820312 -7.046875 59.96875 -8.671875 C 63.113281 -10.296875 65.800781 -12.628906 68.03125 -15.671875 C 70.269531 -18.722656 71.992188 -22.378906 73.203125 -26.640625 C 74.421875 -30.898438 75.03125 -35.617188 75.03125 -40.796875 C 75.03125 -45.867188 74.421875 -50.484375 73.203125 -54.640625 C 71.992188 -58.796875 70.269531 -62.367188 68.03125 -65.359375 C 65.800781 -68.359375 63.113281 -70.695312 59.96875 -72.375 C 56.820312 -74.050781 53.320312 -74.890625 49.46875 -74.890625 Z M 49.46875 -74.890625 "/></g></g></g><g fill="#ffffff" fill-opacity="1"><g transform="translate(1018.42678, 353.274575)"><g><path d="M 70.46875 -56.3125 C 70.46875 -60.476562 70.363281 -63.75 70.15625 -66.125 C 69.957031 -68.507812 69.425781 -70.335938 68.5625 -71.609375 C 67.707031 -72.878906 66.441406 -73.742188 64.765625 -74.203125 C 63.085938 -74.660156 60.78125 -75.039062 57.84375 -75.34375 L 57.84375 -80.671875 L 85.390625 -80.671875 L 85.390625 -33.9375 C 85.390625 -28.15625 85.460938 -23.4375 85.609375 -19.78125 C 85.765625 -16.132812 85.992188 -13.394531 86.296875 -11.5625 C 86.503906 -10.25 86.832031 -9.210938 87.28125 -8.453125 C 87.738281 -7.691406 88.425781 -7.082031 89.34375 -6.625 C 90.257812 -6.164062 91.453125 -5.859375 92.921875 -5.703125 C 94.390625 -5.554688 96.289062 -5.484375 98.625 -5.484375 L 98.625 -0.15625 L 73.515625 1.671875 L 71.84375 -16.59375 L 71.234375 -16.59375 C 67.378906 -10.300781 62.9375 -5.707031 57.90625 -2.8125 C 52.882812 0.0703125 47.632812 1.515625 42.15625 1.515625 C 37.894531 1.515625 33.757812 0.707031 29.75 -0.90625 C 25.75 -2.53125 22.734375 -4.710938 20.703125 -7.453125 C 18.972656 -9.691406 17.726562 -12.785156 16.96875 -16.734375 C 16.207031 -20.691406 15.828125 -25.816406 15.828125 -32.109375 L 15.828125 -56.3125 C 15.828125 -60.476562 15.722656 -63.75 15.515625 -66.125 C 15.316406 -68.507812 14.785156 -70.335938 13.921875 -71.609375 C 13.066406 -72.878906 11.800781 -73.742188 10.125 -74.203125 C 8.445312 -74.660156 6.140625 -75.039062 3.203125 -75.34375 L 3.203125 -80.671875 L 30.75 -80.671875 L 30.75 -39.109375 C 30.75 -28.054688 32.039062 -20.039062 34.625 -15.0625 C 37.207031 -10.09375 41.34375 -7.609375 47.03125 -7.609375 C 55.957031 -7.609375 62.90625 -13.441406 67.875 -25.109375 C 68.382812 -26.328125 68.789062 -27.441406 69.09375 -28.453125 C 69.40625 -29.472656 69.660156 -30.59375 69.859375 -31.8125 C 70.066406 -33.03125 70.21875 -34.398438 70.3125 -35.921875 C 70.414062 -37.441406 70.46875 -39.269531 70.46875 -41.40625 Z M 70.46875 -56.3125 "/></g></g></g><g fill="#ffffff" fill-opacity="1"><g transform="translate(1120.404012, 353.274575)"><g><path d="M 33.796875 -24.203125 C 33.796875 -20.035156 33.894531 -16.734375 34.09375 -14.296875 C 34.289062 -11.867188 34.820312 -10.019531 35.6875 -8.75 C 36.550781 -7.476562 37.796875 -6.640625 39.421875 -6.234375 C 41.046875 -5.828125 43.328125 -5.523438 46.265625 -5.328125 L 46.265625 0 L 5.78125 0 L 5.78125 -5.328125 C 8.726562 -5.429688 11.0625 -5.707031 12.78125 -6.15625 C 14.507812 -6.613281 15.828125 -7.453125 16.734375 -8.671875 C 17.648438 -9.890625 18.234375 -11.640625 18.484375 -13.921875 C 18.742188 -16.203125 18.875 -19.273438 18.875 -23.140625 L 18.875 -40.9375 C 18.875 -47.84375 18.796875 -53.222656 18.640625 -57.078125 C 18.492188 -60.929688 17.988281 -63.769531 17.125 -65.59375 C 16.257812 -67.425781 14.910156 -68.519531 13.078125 -68.875 C 11.253906 -69.226562 8.722656 -69.40625 5.484375 -69.40625 L 5.484375 -74.734375 L 32.109375 -80.515625 L 34.25 -61.640625 L 34.859375 -61.640625 C 36.171875 -64.679688 37.816406 -67.46875 39.796875 -70 C 41.773438 -72.539062 43.929688 -74.695312 46.265625 -76.46875 C 48.597656 -78.25 51.03125 -79.644531 53.5625 -80.65625 C 56.101562 -81.675781 58.695312 -82.1875 61.34375 -82.1875 C 64.582031 -82.1875 67.140625 -81.398438 69.015625 -79.828125 C 70.898438 -78.253906 71.84375 -76.148438 71.84375 -73.515625 C 71.84375 -71.078125 71.082031 -69.171875 69.5625 -67.796875 C 68.039062 -66.429688 65.859375 -65.75 63.015625 -65.75 C 61.390625 -65.75 60.019531 -65.953125 58.90625 -66.359375 C 57.789062 -66.765625 56.800781 -67.195312 55.9375 -67.65625 C 55.070312 -68.113281 54.257812 -68.546875 53.5 -68.953125 C 52.738281 -69.359375 51.898438 -69.5625 50.984375 -69.5625 C 48.242188 -69.5625 45.503906 -67.8125 42.765625 -64.3125 C 40.023438 -60.8125 37.894531 -56.367188 36.375 -50.984375 C 35.5625 -48.046875 34.925781 -44.722656 34.46875 -41.015625 C 34.019531 -37.316406 33.796875 -33.4375 33.796875 -29.375 Z M 33.796875 -24.203125 "/></g></g></g><g fill="#ffffff" fill-opacity="1"><g transform="translate(1193.005757, 353.274575)"><g><path d="M 77.015625 -12.640625 C 73.359375 -8.171875 68.640625 -4.691406 62.859375 -2.203125 C 57.078125 0.273438 50.835938 1.515625 44.140625 1.515625 C 38.765625 1.515625 33.816406 0.53125 29.296875 -1.4375 C 24.785156 -3.414062 20.90625 -6.207031 17.65625 -9.8125 C 14.40625 -13.414062 11.890625 -17.753906 10.109375 -22.828125 C 8.335938 -27.898438 7.453125 -33.53125 7.453125 -39.71875 C 7.453125 -46.21875 8.46875 -52.078125 10.5 -57.296875 C 12.53125 -62.523438 15.394531 -66.988281 19.09375 -70.6875 C 22.800781 -74.394531 27.265625 -77.238281 32.484375 -79.21875 C 37.710938 -81.195312 43.472656 -82.1875 49.765625 -82.1875 C 53.722656 -82.1875 57.328125 -81.859375 60.578125 -81.203125 C 63.828125 -80.546875 66.640625 -79.628906 69.015625 -78.453125 C 71.398438 -77.285156 73.253906 -75.863281 74.578125 -74.1875 C 75.898438 -72.519531 76.5625 -70.722656 76.5625 -68.796875 C 76.5625 -66.765625 75.898438 -65.191406 74.578125 -64.078125 C 73.253906 -62.960938 71.425781 -62.40625 69.09375 -62.40625 C 67.269531 -62.40625 65.75 -62.785156 64.53125 -63.546875 C 63.3125 -64.304688 61.738281 -66.003906 59.8125 -68.640625 C 57.78125 -70.972656 55.828125 -72.617188 53.953125 -73.578125 C 52.078125 -74.546875 49.664062 -75.03125 46.71875 -75.03125 C 39.519531 -75.03125 34.066406 -72.238281 30.359375 -66.65625 C 26.660156 -61.082031 24.8125 -52.867188 24.8125 -42.015625 C 24.8125 -30.335938 26.863281 -21.476562 30.96875 -15.4375 C 35.082031 -9.40625 41.097656 -6.390625 49.015625 -6.390625 C 53.273438 -6.390625 57.28125 -7.226562 61.03125 -8.90625 C 64.789062 -10.582031 68.597656 -13.296875 72.453125 -17.046875 Z M 77.015625 -12.640625 "/></g></g></g><g fill="#ffffff" fill-opacity="1"><g transform="translate(1274.587542, 353.274575)"><g><path d="M 79.453125 -14.15625 C 70.828125 -3.707031 60.117188 1.515625 47.328125 1.515625 C 41.347656 1.515625 35.921875 0.53125 31.046875 -1.4375 C 26.179688 -3.414062 21.992188 -6.207031 18.484375 -9.8125 C 14.984375 -13.414062 12.269531 -17.726562 10.34375 -22.75 C 8.414062 -27.769531 7.453125 -33.328125 7.453125 -39.421875 C 7.453125 -45.609375 8.46875 -51.335938 10.5 -56.609375 C 12.53125 -61.890625 15.394531 -66.40625 19.09375 -70.15625 C 22.800781 -73.914062 27.21875 -76.859375 32.34375 -78.984375 C 37.46875 -81.117188 43.070312 -82.1875 49.15625 -82.1875 C 59 -82.1875 66.609375 -79.519531 71.984375 -74.1875 C 77.367188 -68.863281 80.0625 -61.234375 80.0625 -51.296875 C 80.0625 -49.867188 79.78125 -49.003906 79.21875 -48.703125 C 78.664062 -48.398438 77.375 -48.25 75.34375 -48.25 L 25.265625 -48.25 C 25.066406 -47.4375 24.914062 -46.445312 24.8125 -45.28125 C 24.707031 -44.113281 24.65625 -42.820312 24.65625 -41.40625 C 24.65625 -36.125 25.289062 -31.328125 26.5625 -27.015625 C 27.832031 -22.703125 29.65625 -19.023438 32.03125 -15.984375 C 34.414062 -12.941406 37.257812 -10.582031 40.5625 -8.90625 C 43.863281 -7.226562 47.539062 -6.390625 51.59375 -6.390625 C 55.851562 -6.390625 59.8125 -7.328125 63.46875 -9.203125 C 67.125 -11.085938 70.878906 -14.160156 74.734375 -18.421875 Z M 54.34375 -55.25 C 56.363281 -55.25 57.984375 -55.296875 59.203125 -55.390625 C 60.421875 -55.492188 61.332031 -55.695312 61.9375 -56 C 62.550781 -56.3125 62.957031 -56.742188 63.15625 -57.296875 C 63.363281 -57.859375 63.46875 -58.597656 63.46875 -59.515625 C 63.46875 -64.179688 61.96875 -67.910156 58.96875 -70.703125 C 55.976562 -73.492188 51.894531 -74.890625 46.71875 -74.890625 C 35.757812 -74.890625 28.960938 -68.34375 26.328125 -55.25 Z M 54.34375 -55.25 "/></g></g></g><g fill="#ffffff" fill-opacity="1"><g transform="translate(1361.800938, 353.274575)"><g><path d="M 73.671875 -12.78125 L 73.0625 -12.78125 C 69.40625 -7.601562 65.519531 -3.925781 61.40625 -1.75 C 57.300781 0.425781 52.457031 1.515625 46.875 1.515625 C 41.09375 1.515625 35.789062 0.476562 30.96875 -1.59375 C 26.15625 -3.675781 21.992188 -6.566406 18.484375 -10.265625 C 14.984375 -13.972656 12.242188 -18.414062 10.265625 -23.59375 C 8.296875 -28.769531 7.3125 -34.398438 7.3125 -40.484375 C 7.3125 -46.472656 8.296875 -52.03125 10.265625 -57.15625 C 12.242188 -62.28125 14.984375 -66.691406 18.484375 -70.390625 C 21.992188 -74.097656 26.179688 -76.988281 31.046875 -79.0625 C 35.921875 -81.144531 41.195312 -82.1875 46.875 -82.1875 C 51.75 -82.1875 56.085938 -81.375 59.890625 -79.75 C 63.691406 -78.125 67.367188 -75.535156 70.921875 -71.984375 L 70.921875 -87.515625 C 70.921875 -93.296875 70.84375 -98.113281 70.6875 -101.96875 C 70.539062 -105.832031 70.316406 -108.472656 70.015625 -109.890625 C 69.503906 -112.117188 68.082031 -113.691406 65.75 -114.609375 C 63.414062 -115.523438 59.613281 -115.984375 54.34375 -115.984375 L 54.34375 -120.546875 L 85.53125 -126.328125 L 85.53125 -38.5 C 85.53125 -31.5 85.582031 -25.738281 85.6875 -21.21875 C 85.789062 -16.707031 86.097656 -13.488281 86.609375 -11.5625 C 86.910156 -10.34375 87.289062 -9.328125 87.75 -8.515625 C 88.207031 -7.710938 88.863281 -7.082031 89.71875 -6.625 C 90.582031 -6.164062 91.75 -5.832031 93.21875 -5.625 C 94.695312 -5.425781 96.601562 -5.328125 98.9375 -5.328125 L 98.9375 -0.15625 L 73.671875 1.515625 Z M 70.625 -46.421875 C 70.625 -51.703125 70.34375 -55.710938 69.78125 -58.453125 C 69.226562 -61.191406 68.140625 -63.570312 66.515625 -65.59375 C 64.179688 -68.644531 61.210938 -70.957031 57.609375 -72.53125 C 54.003906 -74.101562 50.425781 -74.890625 46.875 -74.890625 C 39.570312 -74.890625 34.015625 -71.867188 30.203125 -65.828125 C 26.398438 -59.785156 24.5 -51.59375 24.5 -41.25 C 24.5 -35.875 24.976562 -31.003906 25.9375 -26.640625 C 26.90625 -22.273438 28.328125 -18.546875 30.203125 -15.453125 C 32.085938 -12.359375 34.425781 -9.972656 37.21875 -8.296875 C 40.007812 -6.617188 43.226562 -5.78125 46.875 -5.78125 C 48.707031 -5.78125 50.5625 -5.984375 52.4375 -6.390625 C 54.3125 -6.796875 56.132812 -7.429688 57.90625 -8.296875 C 59.6875 -9.160156 61.335938 -10.175781 62.859375 -11.34375 C 64.378906 -12.507812 65.648438 -13.851562 66.671875 -15.375 C 68.085938 -17.601562 69.097656 -20.289062 69.703125 -23.4375 C 70.316406 -26.582031 70.625 -30.894531 70.625 -36.375 Z M 70.625 -46.421875 "/></g></g></g></svg>